<svg width="26" height="20" viewBox="0 0 26 20" fill="none" xmlns="http://www.w3.org/2000/svg">
<path d="M16.5455 0C15.2917 0 14.0893 0.526784 13.2028 1.46447C12.3162 2.40215 11.8182 3.67392 11.8182 5C11.8182 6.32608 12.3162 7.59785 13.2028 8.53553C14.0893 9.47322 15.2917 10 16.5455 10C17.7992 10 19.0016 9.47322 19.8881 8.53553C20.7747 7.59785 21.2727 6.32608 21.2727 5C21.2727 3.67392 20.7747 2.40215 19.8881 1.46447C19.0016 0.526784 17.7992 0 16.5455 0ZM16.5455 2.375C16.8714 2.375 17.1941 2.4429 17.4952 2.57482C17.7963 2.70673 18.0699 2.90009 18.3004 3.14384C18.5308 3.3876 18.7136 3.67698 18.8384 3.99546C18.9631 4.31394 19.0273 4.65528 19.0273 5C19.0273 5.34472 18.9631 5.68606 18.8384 6.00454C18.7136 6.32302 18.5308 6.6124 18.3004 6.85616C18.0699 7.09991 17.7963 7.29327 17.4952 7.42518C17.1941 7.5571 16.8714 7.625 16.5455 7.625C16.2195 7.625 15.8968 7.5571 15.5957 7.42518C15.2946 7.29327 15.021 7.09991 14.7905 6.85616C14.5601 6.6124 14.3773 6.32302 14.2526 6.00454C14.1278 5.68606 14.0636 5.34472 14.0636 5C14.0636 4.30381 14.3251 3.63613 14.7905 3.14384C15.256 2.65156 15.8872 2.375 16.5455 2.375ZM3.54545 3.75V7.5H0V10H3.54545V13.75H5.90909V10H9.45455V7.5H5.90909V3.75H3.54545ZM16.5455 11.25C13.39 11.25 7.09091 12.9125 7.09091 16.25V20H26V16.25C26 12.9125 19.7009 11.25 16.5455 11.25ZM16.5455 13.625C20.0555 13.625 23.7545 15.45 23.7545 16.25V17.625H9.33636V16.25C9.33636 15.45 13 13.625 16.5455 13.625Z" fill="#181A20"/>
</svg>
