<svg width="20" height="14" viewBox="0 0 20 14" fill="none" xmlns="http://www.w3.org/2000/svg">
<path d="M1.33333 13.5C1.02639 13.5 0.769278 13.396 0.562 13.188C0.354 12.9807 0.25 12.7236 0.25 12.4167C0.25 12.1097 0.354 11.8526 0.562 11.6453C0.769278 11.4373 1.02639 11.3333 1.33333 11.3333H18.6667C18.9736 11.3333 19.2307 11.4373 19.438 11.6453C19.646 11.8526 19.75 12.1097 19.75 12.4167C19.75 12.7236 19.646 12.9807 19.438 13.188C19.2307 13.396 18.9736 13.5 18.6667 13.5H1.33333ZM1.33333 8.08333C1.02639 8.08333 0.769278 7.97933 0.562 7.77133C0.354 7.56406 0.25 7.30694 0.25 7C0.25 6.69306 0.354 6.43558 0.562 6.22758C0.769278 6.02031 1.02639 5.91667 1.33333 5.91667H18.6667C18.9736 5.91667 19.2307 6.02031 19.438 6.22758C19.646 6.43558 19.75 6.69306 19.75 7C19.75 7.30694 19.646 7.56406 19.438 7.77133C19.2307 7.97933 18.9736 8.08333 18.6667 8.08333H1.33333ZM1.33333 2.66667C1.02639 2.66667 0.769278 2.56303 0.562 2.35575C0.354 2.14775 0.25 1.89028 0.25 1.58333C0.25 1.27639 0.354 1.01892 0.562 0.810917C0.769278 0.603639 1.02639 0.5 1.33333 0.5H18.6667C18.9736 0.5 19.2307 0.603639 19.438 0.810917C19.646 1.01892 19.75 1.27639 19.75 1.58333C19.75 1.89028 19.646 2.14775 19.438 2.35575C19.2307 2.56303 18.9736 2.66667 18.6667 2.66667H1.33333Z" fill="#181A20"/>
</svg>
