<svg width="22" height="27" viewBox="0 0 22 27" fill="none" xmlns="http://www.w3.org/2000/svg">
<path d="M18.3302 25.0648C16.9087 26.4428 15.3567 26.2252 13.8626 25.5725C12.2816 24.9053 10.8311 24.8762 9.16298 25.5725C7.07425 26.4718 5.97186 26.2107 4.72442 25.0648C-2.35406 17.7687 -1.3097 6.65784 6.72613 6.2517C8.68432 6.35323 10.0478 7.32508 11.1937 7.41211C12.9053 7.06398 14.5444 6.06313 16.372 6.19368C18.5623 6.36774 20.2159 7.23804 21.3038 8.80459C16.7782 11.517 17.8515 17.4786 22 19.1467C21.1732 21.3225 20.0998 23.4838 18.3157 25.0793L18.3302 25.0648ZM11.0486 6.16467C10.8311 2.93003 13.4565 0.261092 16.4736 0C16.8942 3.74232 13.0794 6.5273 11.0486 6.16467Z" fill="white"/>
</svg>
