<svg height="20.955" viewBox="0 0 21.5 20.955" width="21.5" xmlns="http://www.w3.org/2000/svg">
    <path d="M12.355,22.2,11.29,23.264a1.147,1.147,0,0,1-1.627,0L.335,13.941a1.147,1.147,0,0,1,0-1.627L9.663,2.986a1.147,1.147,0,0,1,1.627,0l1.065,1.065A1.153,1.153,0,0,1,12.336,5.7L6.554,11.206H20.345A1.149,1.149,0,0,1,21.5,12.357v1.536a1.149,1.149,0,0,1-1.152,1.152H6.554l5.782,5.509A1.145,1.145,0,0,1,12.355,22.2Z"
        fill="#002245"
        id="arrow-left" transform="translate(0.004 -2.647)" />
</svg>
