<svg width="18" height="18" viewBox="0 0 18 18" fill="none" xmlns="http://www.w3.org/2000/svg">
<path d="M15.875 12.8381V10.25C15.875 9.91848 15.7433 9.60054 15.5089 9.36612C15.2745 9.1317 14.9565 9 14.625 9H9.62501V6.5H10.875C11.2064 6.49967 11.5242 6.36787 11.7585 6.13352C11.9929 5.89917 12.1247 5.58142 12.125 5.25V1.5C12.1247 1.16858 11.9929 0.850831 11.7585 0.616482C11.5242 0.382133 11.2064 0.250331 10.875 0.25H7.12501C6.79359 0.250331 6.47584 0.382133 6.24149 0.616482C6.00714 0.850831 5.87534 1.16858 5.87501 1.5V5.25C5.87534 5.58142 6.00714 5.89917 6.24149 6.13352C6.47584 6.36787 6.79359 6.49967 7.12501 6.5H8.37501V9H3.37501C3.04349 9 2.72554 9.1317 2.49112 9.36612C2.2567 9.60054 2.12501 9.91848 2.12501 10.25V12.8387C1.53584 12.9909 1.02239 13.3526 0.68088 13.8563C0.339372 14.3599 0.19326 14.9707 0.269932 15.5744C0.346603 16.178 0.640794 16.733 1.09736 17.1352C1.55393 17.5374 2.14152 17.7594 2.75001 17.7594C3.35849 17.7594 3.94609 17.5374 4.40265 17.1352C4.85922 16.733 5.15341 16.178 5.23008 15.5744C5.30675 14.9707 5.16064 14.3599 4.81913 13.8563C4.47762 13.3526 3.96417 12.9909 3.37501 12.8387V10.25H8.37501V12.8387C7.78584 12.9909 7.27239 13.3526 6.93088 13.8563C6.58937 14.3599 6.44326 14.9707 6.51993 15.5744C6.5966 16.178 6.89079 16.733 7.34736 17.1352C7.80393 17.5374 8.39152 17.7594 9.00001 17.7594C9.60849 17.7594 10.1961 17.5374 10.6527 17.1352C11.1092 16.733 11.4034 16.178 11.4801 15.5744C11.5568 14.9707 11.4106 14.3599 11.0691 13.8563C10.7276 13.3526 10.2142 12.9909 9.62501 12.8387V10.25H14.625V12.8381C14.0358 12.9902 13.5224 13.352 13.1809 13.8556C12.8394 14.3592 12.6933 14.9701 12.7699 15.5737C12.8466 16.1774 13.1408 16.7323 13.5974 17.1346C14.0539 17.5368 14.6415 17.7587 15.25 17.7587C15.8585 17.7587 16.4461 17.5368 16.9027 17.1346C17.3592 16.7323 17.6534 16.1774 17.7301 15.5737C17.8068 14.9701 17.6606 14.3592 17.3191 13.8556C16.9776 13.352 16.4642 12.9902 15.875 12.8381ZM7.12501 1.5H10.875L10.8756 5.25H7.12501V1.5ZM4.00001 15.25C4.00001 15.4972 3.92669 15.7389 3.78934 15.9445C3.65199 16.15 3.45677 16.3102 3.22836 16.4049C2.99995 16.4995 2.74862 16.5242 2.50614 16.476C2.26367 16.4277 2.04094 16.3087 1.86612 16.1339C1.69131 15.9591 1.57226 15.7363 1.52402 15.4939C1.47579 15.2514 1.50055 15.0001 1.59516 14.7716C1.68977 14.5432 1.84998 14.348 2.05554 14.2107C2.2611 14.0733 2.50278 14 2.75001 14C3.08142 14.0003 3.39918 14.1321 3.63352 14.3665C3.86787 14.6008 3.99968 14.9186 4.00001 15.25ZM10.25 15.25C10.25 15.4972 10.1767 15.7389 10.0393 15.9445C9.90199 16.15 9.70677 16.3102 9.47836 16.4049C9.24995 16.4995 8.99862 16.5242 8.75614 16.476C8.51367 16.4277 8.29094 16.3087 8.11612 16.1339C7.94131 15.9591 7.82226 15.7363 7.77402 15.4939C7.72579 15.2514 7.75055 15.0001 7.84516 14.7716C7.93977 14.5432 8.09998 14.348 8.30554 14.2107C8.5111 14.0733 8.75278 14 9.00001 14C9.33137 14.0005 9.64903 14.1324 9.88334 14.3667C10.1177 14.601 10.2495 14.9186 10.25 15.25ZM15.25 16.5C15.0028 16.5 14.7611 16.4267 14.5555 16.2893C14.35 16.152 14.1898 15.9568 14.0952 15.7284C14.0005 15.4999 13.9758 15.2486 14.024 15.0061C14.0723 14.7637 14.1913 14.5409 14.3661 14.3661C14.5409 14.1913 14.7637 14.0722 15.0061 14.024C15.2486 13.9758 15.5 14.0005 15.7284 14.0951C15.9568 14.1898 16.152 14.35 16.2893 14.5555C16.4267 14.7611 16.5 15.0028 16.5 15.25C16.4997 15.5814 16.3679 15.8992 16.1335 16.1335C15.8992 16.3679 15.5814 16.4997 15.25 16.5Z" fill="#333333"/>
</svg>
