<svg width="52" height="52" viewBox="0 0 52 52" fill="none" xmlns="http://www.w3.org/2000/svg">
<path d="M0 23.8C0 14.6344 0 10.0516 2.06304 6.68502C3.21742 4.80124 4.80124 3.21742 6.68502 2.06304C10.0516 0 14.6344 0 23.8 0H28.2003C37.3659 0 41.9487 0 45.3153 2.06304C47.1991 3.21742 48.7829 4.80124 49.9373 6.68502C52.0003 10.0516 52.0003 14.6344 52.0003 23.8V28.2003C52.0003 37.3659 52.0003 41.9487 49.9373 45.3153C48.7829 47.1991 47.1991 48.7829 45.3153 49.9373C41.9487 52.0003 37.3659 52.0003 28.2003 52.0003H23.8C14.6344 52.0003 10.0516 52.0003 6.68502 49.9373C4.80124 48.7829 3.21742 47.1991 2.06304 45.3153C0 41.9487 0 37.3659 0 28.2003V23.8Z" fill="#6842FF" fill-opacity="0.1"/>
<path d="M26.3197 27.5962V22.7927C26.3197 22.7078 26.286 22.6264 26.226 22.5664C26.166 22.5064 26.0846 22.4727 25.9997 22.4727C25.9148 22.4727 25.8334 22.5064 25.7734 22.5664C25.7134 22.6264 25.6797 22.7078 25.6797 22.7927V27.5962C25.6797 27.681 25.7134 27.7624 25.7734 27.8224C25.8334 27.8825 25.9148 27.9162 25.9997 27.9162C26.0846 27.9162 26.166 27.8825 26.226 27.8224C26.286 27.7624 26.3197 27.681 26.3197 27.5962Z" fill="#6842FF" stroke="#6842FF"/>
<path d="M39.7033 27.7167C39.7539 27.6892 39.7962 27.6486 39.8257 27.5991C39.8551 27.5496 39.8707 27.493 39.8707 27.4354V18.2485C39.8707 18.1976 39.8585 18.1474 39.8352 18.102C39.8119 18.0567 39.7781 18.0177 39.7366 17.9881C39.2249 17.6206 38.6516 17.3479 38.0438 17.1826C38.0352 17.1587 38.0236 17.136 38.0092 17.1151C37.9062 16.9871 35.4492 13.9906 30.183 13.7919L29.895 12.5615C29.8785 12.4912 29.8388 12.4285 29.7822 12.3837C29.7256 12.3388 29.6555 12.3144 29.5833 12.3145H22.4163C22.3441 12.3144 22.274 12.3388 22.2174 12.3837C22.1608 12.4285 22.121 12.4912 22.1046 12.5615L21.8166 13.7919C16.5497 13.9906 14.0934 16.9858 13.9903 17.1151C13.9761 17.1361 13.9645 17.1588 13.9558 17.1826C13.348 17.348 12.7747 17.6208 12.263 17.9881C12.2215 18.0177 12.1877 18.0567 12.1644 18.102C12.1411 18.1474 12.1289 18.1976 12.1289 18.2485V27.4354C12.1289 27.493 12.1444 27.5496 12.1739 27.5991C12.2034 27.6486 12.2456 27.6892 12.2963 27.7167C13.027 28.0407 13.8048 28.246 14.6003 28.3247C14.7473 28.6598 14.9305 28.9777 15.1468 29.2729C15.5266 30.7577 16.0116 32.2136 16.598 33.6297C17.1603 34.9052 17.2556 36.8191 16.8812 39.3177C16.8812 39.3244 16.8812 39.3305 16.8812 39.3372C16.8788 39.3464 16.8769 39.3558 16.8755 39.3653C16.8774 39.3814 16.8806 39.3972 16.8851 39.4127C16.8871 39.4295 16.8904 39.446 16.895 39.4623C16.903 39.4854 16.9138 39.5076 16.927 39.5282C16.9351 39.5423 16.9442 39.5558 16.9542 39.5685C16.9696 39.5863 16.987 39.6022 17.006 39.6159C17.0197 39.627 17.0344 39.6369 17.0499 39.6453C17.0703 39.6553 17.0917 39.6631 17.1139 39.6684C17.1256 39.6738 17.1378 39.6783 17.1503 39.6818C17.1653 39.6838 17.1804 39.6849 17.1955 39.685H34.8025C34.8176 39.6849 34.8327 39.6838 34.8476 39.6818C34.8601 39.6783 34.8723 39.6738 34.8841 39.6684C34.9062 39.6631 34.9277 39.6553 34.9481 39.6453C34.9636 39.6369 34.9783 39.627 34.9919 39.6159C35.011 39.6022 35.0284 39.5863 35.0438 39.5685C35.0538 39.5558 35.0629 39.5423 35.071 39.5282C35.0842 39.5076 35.095 39.4854 35.103 39.4623C35.1076 39.446 35.1109 39.4295 35.1129 39.4127C35.1174 39.3972 35.1206 39.3813 35.1225 39.3653C35.1211 39.3558 35.1192 39.3464 35.1167 39.3372C35.1167 39.3305 35.1187 39.3244 35.1167 39.3177C34.7423 36.8191 34.8377 34.9052 35.3999 33.6297C35.9864 32.2136 36.4714 30.7577 36.8511 29.2729C37.0674 28.9777 37.2507 28.6598 37.3977 28.3247C38.1937 28.2461 38.9721 28.0409 39.7033 27.7167ZM34.8143 33.3711C34.2319 34.6924 34.1103 36.6031 34.4361 39.045H17.5644C17.8918 36.6044 17.7686 34.693 17.1862 33.3711C16.7455 32.3246 16.3692 31.2521 16.0595 30.1596C16.2432 30.2865 16.438 30.3966 16.6415 30.4885C18.2249 31.2057 19.8291 31.7813 21.3391 31.7813C22.9654 31.7813 24.4825 31.1132 25.7455 29.2345C25.7867 29.1641 25.7994 29.0806 25.7811 29.0012C25.7627 28.9217 25.7148 28.8523 25.647 28.807C25.5792 28.7617 25.4967 28.744 25.4163 28.7575C25.3359 28.771 25.2636 28.8146 25.2143 28.8796C23.158 31.9378 20.5103 31.5407 16.9052 29.9074C13.9772 28.5813 14.622 23.31 14.6291 23.2569C14.64 23.1727 14.6171 23.0876 14.5653 23.0203C14.5135 22.953 14.4371 22.9091 14.3529 22.8981C14.2687 22.8872 14.1836 22.9101 14.1164 22.9619C14.0491 23.0137 14.0051 23.0901 13.9942 23.1743C13.8218 24.6701 13.9397 26.1852 14.3414 27.6364C13.805 27.5546 13.2784 27.4181 12.7699 27.229V18.4156C15.478 16.6188 18.7391 18.5033 18.7721 18.5228C18.8083 18.5442 18.8483 18.5583 18.8899 18.5642C18.9315 18.5701 18.9739 18.5678 19.0146 18.5574C19.0553 18.547 19.0935 18.5286 19.1272 18.5034C19.1608 18.4782 19.1891 18.4466 19.2105 18.4105C19.2319 18.3743 19.246 18.3343 19.2519 18.2927C19.2579 18.2511 19.2556 18.2087 19.2451 18.168C19.2347 18.1273 19.2164 18.089 19.1912 18.0554C19.1659 18.0218 19.1343 17.9935 19.0982 17.9721C17.8464 17.2754 16.4257 16.9403 14.9945 17.0044C15.9081 16.1781 18.0943 14.6242 21.6652 14.4399L21.3855 15.6325C21.3751 15.6737 21.373 15.7166 21.3793 15.7586C21.3857 15.8007 21.4003 15.841 21.4224 15.8773C21.4445 15.9136 21.4736 15.9452 21.508 15.9701C21.5424 15.9951 21.5814 16.0129 21.6228 16.0226C21.6642 16.0323 21.7071 16.0336 21.749 16.0266C21.7909 16.0195 21.831 16.0041 21.8669 15.9814C21.9028 15.9587 21.9338 15.929 21.9582 15.8942C21.9825 15.8593 21.9996 15.82 22.0086 15.7785L22.6723 12.9545H29.3283L29.991 15.7797C29.9999 15.8213 30.0171 15.8606 30.0414 15.8955C30.0657 15.9303 30.0968 15.96 30.1327 15.9827C30.1686 16.0054 30.2087 16.0208 30.2506 16.0278C30.2925 16.0349 30.3354 16.0336 30.3768 16.0239C30.4181 16.0142 30.4572 15.9963 30.4916 15.9714C30.526 15.9464 30.5551 15.9149 30.5772 15.8786C30.5993 15.8423 30.6139 15.8019 30.6202 15.7599C30.6266 15.7179 30.6244 15.675 30.614 15.6338L30.3343 14.4412C33.8918 14.6255 36.0835 16.1788 37.0019 17.005C35.5717 16.9417 34.1521 17.2769 32.9014 17.9733C32.8645 17.9944 32.8321 18.0225 32.8062 18.0562C32.7803 18.0899 32.7613 18.1284 32.7505 18.1695C32.7396 18.2105 32.737 18.2534 32.7429 18.2955C32.7487 18.3375 32.7629 18.378 32.7846 18.4146C32.8063 18.4511 32.835 18.483 32.8691 18.5083C32.9032 18.5336 32.942 18.5519 32.9833 18.5621C33.0246 18.5722 33.0674 18.5741 33.1094 18.5675C33.1514 18.5609 33.1916 18.546 33.2278 18.5237C33.2598 18.5042 36.5145 16.6143 39.2297 18.4169V27.2277C38.7212 27.4169 38.1946 27.5535 37.6582 27.6354C38.0599 26.1841 38.1778 24.669 38.0054 23.173C38 23.1313 37.9864 23.0911 37.9654 23.0547C37.9445 23.0182 37.9165 22.9863 37.8832 22.9606C37.8499 22.935 37.8119 22.9162 37.7713 22.9052C37.7307 22.8943 37.6884 22.8914 37.6467 22.8969C37.605 22.9023 37.5648 22.9159 37.5283 22.9368C37.4919 22.9578 37.4599 22.9857 37.4343 23.019C37.4086 23.0523 37.3898 23.0904 37.3789 23.131C37.3679 23.1715 37.3651 23.2139 37.3705 23.2556C37.3775 23.3087 38.0223 28.5801 35.0943 29.9061C31.4879 31.5381 28.8415 31.9362 26.7852 28.8783C26.7372 28.8094 26.6641 28.7622 26.5817 28.7467C26.4992 28.7313 26.4139 28.7488 26.3443 28.7956C26.2746 28.8424 26.2261 28.9147 26.2092 28.9969C26.1923 29.0791 26.2084 29.1646 26.254 29.2351C27.5174 31.1138 29.0339 31.782 30.6607 31.782C32.1705 31.782 33.775 31.206 35.358 30.4892C35.5619 30.3971 35.757 30.2868 35.9411 30.1596C35.6314 31.2521 35.2551 32.3246 34.8143 33.3711Z" fill="#6842FF" stroke="#6842FF" stroke-width="1.5"/>
<path d="M28.4959 20.101H28.5689C30.0146 20.0674 30.8105 18.8338 30.8438 18.781C30.8892 18.7093 30.9042 18.6225 30.8856 18.5397C30.867 18.4569 30.8163 18.3848 30.7446 18.3394C30.6729 18.294 30.586 18.279 30.5032 18.2976C30.4204 18.3162 30.3484 18.3669 30.303 18.4386C30.2969 18.4486 29.6514 19.4358 28.5538 19.4626H28.4962C28.1938 19.471 27.8933 19.4114 27.6168 19.2885C27.3403 19.1655 27.0949 18.9821 26.8985 18.7519C26.8737 18.7179 26.8425 18.6892 26.8067 18.6673C26.7708 18.6453 26.731 18.6307 26.6894 18.6242C26.6479 18.6177 26.6055 18.6194 26.5646 18.6292C26.5238 18.6391 26.4853 18.6569 26.4513 18.6817C26.4173 18.7064 26.3885 18.7376 26.3666 18.7735C26.3447 18.8094 26.3301 18.8492 26.3235 18.8907C26.317 18.9323 26.3187 18.9747 26.3286 19.0155C26.3385 19.0564 26.3563 19.0949 26.381 19.1289C26.6372 19.4402 26.9605 19.6895 27.3268 19.8579C27.6931 20.0263 28.0929 20.1094 28.4959 20.101ZM33.0652 29.4338H33.3356C33.4205 29.4338 33.5019 29.4001 33.5619 29.3401C33.6219 29.2801 33.6556 29.1987 33.6556 29.1138C33.6556 29.029 33.6219 28.9476 33.5619 28.8876C33.5019 28.8276 33.4205 28.7938 33.3356 28.7938H33.0652C32.9803 28.7938 32.8989 28.8276 32.8389 28.8876C32.7789 28.9476 32.7452 29.029 32.7452 29.1138C32.7452 29.1987 32.7789 29.2801 32.8389 29.3401C32.8989 29.4001 32.9803 29.4338 33.0652 29.4338ZM25.101 18.7503C24.8969 18.9863 24.6419 19.1729 24.3551 19.2959C24.0683 19.4189 23.7574 19.4752 23.4457 19.4604C22.3481 19.4348 21.7026 18.4476 21.6972 18.4383C21.6519 18.3665 21.5799 18.3157 21.4971 18.2969C21.4143 18.2782 21.3274 18.2932 21.2556 18.3385C21.1838 18.3838 21.133 18.4558 21.1142 18.5386C21.0955 18.6214 21.1104 18.7083 21.1558 18.7801C21.1878 18.8329 21.9849 20.0665 23.4306 20.1001H23.5036C23.9068 20.1082 24.3066 20.0248 24.6729 19.8561C25.0392 19.6875 25.3625 19.4379 25.6185 19.1263C25.6685 19.0577 25.6892 18.972 25.676 18.8882C25.6628 18.8043 25.6169 18.7291 25.5482 18.6791C25.4796 18.6291 25.394 18.6085 25.3101 18.6216C25.2262 18.6348 25.151 18.6807 25.101 18.7494V18.7503ZM18.9346 28.7938H18.6642C18.5794 28.7938 18.498 28.8276 18.438 28.8876C18.378 28.9476 18.3442 29.029 18.3442 29.1138C18.3442 29.1987 18.378 29.2801 18.438 29.3401C18.498 29.4001 18.5794 29.4338 18.6642 29.4338H18.9346C19.0195 29.4338 19.1009 29.4001 19.1609 29.3401C19.2209 29.2801 19.2546 29.1987 19.2546 29.1138C19.2546 29.029 19.2209 28.9476 19.1609 28.8876C19.1009 28.8276 19.0195 28.7938 18.9346 28.7938ZM36.7839 36.5433C36.8033 36.5433 36.8227 36.5416 36.8418 36.5382C36.9251 36.5226 36.9987 36.4747 37.0467 36.405C37.0947 36.3352 37.1131 36.2493 37.0978 36.166L36.9177 35.1801C36.9008 35.0982 36.8526 35.0261 36.7833 34.9794C36.7139 34.9326 36.6291 34.9148 36.5468 34.9298C36.4645 34.9448 36.3914 34.9914 36.3431 35.0597C36.2948 35.1279 36.2751 35.2124 36.2882 35.295L36.4684 36.2809C36.4819 36.3547 36.5209 36.4214 36.5786 36.4693C36.6362 36.5173 36.7089 36.5435 36.7839 36.5433ZM38.3641 35.5679C38.3914 35.6 38.4248 35.6263 38.4623 35.6455C38.4998 35.6646 38.5407 35.6762 38.5826 35.6795C38.6246 35.6829 38.6668 35.6779 38.7069 35.6649C38.7469 35.652 38.784 35.6312 38.8161 35.6039C38.8481 35.5766 38.8745 35.5432 38.8936 35.5058C38.9128 35.4683 38.9244 35.4274 38.9277 35.3854C38.931 35.3434 38.9261 35.3012 38.9131 35.2611C38.9001 35.2211 38.8794 35.184 38.8521 35.1519L38.2034 34.3878C38.1761 34.3557 38.1428 34.3293 38.1053 34.3102C38.0678 34.291 38.0268 34.2794 37.9849 34.276C37.9429 34.2727 37.9006 34.2776 37.8606 34.2906C37.8205 34.3036 37.7833 34.3243 37.7513 34.3516C37.7192 34.3789 37.6929 34.4123 37.6737 34.4498C37.6545 34.4873 37.6429 34.5282 37.6396 34.5702C37.6362 34.6122 37.6411 34.6544 37.6541 34.6945C37.6671 34.7346 37.6878 34.7717 37.7151 34.8038L38.3641 35.5679ZM39.7558 34.0194C39.8312 34.0195 39.9043 33.993 39.9621 33.9444C40.0198 33.8959 40.0586 33.8285 40.0715 33.7542C40.0844 33.6798 40.0706 33.6033 40.0326 33.5381C39.9945 33.473 39.9347 33.4233 39.8636 33.398L38.9199 33.0604C38.8401 33.0321 38.7523 33.0366 38.6758 33.0729C38.5992 33.1092 38.5402 33.1744 38.5117 33.2542C38.4832 33.3339 38.4874 33.4217 38.5235 33.4984C38.5596 33.575 38.6246 33.6342 38.7042 33.663L39.6479 33.9999C39.6825 34.0126 39.719 34.0192 39.7558 34.0194ZM38.8764 31.5526C38.7981 31.5672 38.7281 31.6105 38.68 31.674C38.632 31.7374 38.6093 31.8166 38.6164 31.8959C38.6236 31.9752 38.6601 32.049 38.7187 32.1029C38.7774 32.1567 38.854 32.1868 38.9337 32.1871C38.9531 32.1872 38.9725 32.1854 38.9916 32.1817L39.9775 32.0022C40.0597 31.9856 40.1321 31.9374 40.1792 31.8679C40.2262 31.7985 40.2441 31.7134 40.229 31.6309C40.2139 31.5484 40.167 31.4751 40.0984 31.4268C40.0299 31.3785 39.9451 31.3591 39.8623 31.3727L38.8764 31.5526ZM38.8486 29.6194L38.085 30.2681C38.053 30.2954 38.0267 30.3287 38.0076 30.3662C37.9885 30.4037 37.977 30.4446 37.9737 30.4865C37.9703 30.5285 37.9753 30.5707 37.9883 30.6107C38.0013 30.6507 38.0221 30.6878 38.0494 30.7198C38.0767 30.7518 38.11 30.7781 38.1475 30.7972C38.185 30.8163 38.2259 30.8278 38.2678 30.8311C38.3098 30.8345 38.3519 30.8295 38.392 30.8165C38.432 30.8035 38.469 30.7828 38.501 30.7554L39.2646 30.1068C39.2966 30.0795 39.3229 30.0461 39.342 30.0087C39.3611 29.9712 39.3726 29.9303 39.376 29.8884C39.3793 29.8464 39.3743 29.8042 39.3613 29.7642C39.3483 29.7242 39.3276 29.6871 39.3002 29.6551C39.2729 29.6231 39.2396 29.5968 39.2021 29.5777C39.1646 29.5586 39.1237 29.547 39.0818 29.5437C39.0399 29.5404 38.9977 29.5454 38.9577 29.5584C38.9176 29.5714 38.8806 29.5921 38.8486 29.6194ZM15.4537 34.9228C15.3704 34.9076 15.2845 34.9259 15.2147 34.9739C15.145 35.0219 15.0971 35.0956 15.0815 35.1788L14.9014 36.1647C14.8861 36.248 14.9045 36.3339 14.9525 36.4037C15.0005 36.4734 15.0741 36.5213 15.1574 36.5369C15.1765 36.5403 15.1959 36.542 15.2153 36.542C15.2901 36.5419 15.3625 36.5156 15.4199 36.4676C15.4773 36.4197 15.5161 36.3532 15.5295 36.2796L15.7097 35.2937C15.7246 35.2106 15.706 35.125 15.658 35.0555C15.6101 34.9861 15.5366 34.9384 15.4537 34.9228ZM13.3919 35.6796C13.4383 35.6796 13.4842 35.6695 13.5263 35.65C13.5684 35.6305 13.6057 35.602 13.6358 35.5666L14.2847 34.8028C14.3399 34.738 14.3671 34.654 14.3603 34.5692C14.3535 34.4844 14.3133 34.4058 14.2486 34.3506C14.1838 34.2955 14.0998 34.2683 14.015 34.2751C13.9302 34.2819 13.8516 34.322 13.7964 34.3868L13.1478 35.1519C13.1083 35.1985 13.0829 35.2554 13.0747 35.3159C13.0665 35.3764 13.0757 35.4381 13.1014 35.4935C13.1271 35.5489 13.1681 35.5958 13.2196 35.6287C13.271 35.6615 13.3309 35.679 13.3919 35.679V35.6796ZM13.0799 33.0604L12.1362 33.398C12.095 33.4108 12.0567 33.4318 12.0238 33.4598C11.9909 33.4877 11.964 33.5221 11.9447 33.5607C11.9254 33.5994 11.9141 33.6415 11.9116 33.6846C11.909 33.7277 11.9152 33.7709 11.9297 33.8116C11.9443 33.8523 11.967 33.8896 11.9963 33.9212C12.0257 33.9529 12.0612 33.9783 12.1006 33.9959C12.1401 34.0135 12.1827 34.0229 12.2259 34.0236C12.2691 34.0243 12.3119 34.0162 12.3519 33.9999L13.2959 33.663C13.3756 33.6342 13.4406 33.575 13.4767 33.4984C13.5128 33.4217 13.517 33.3339 13.4885 33.2542C13.4599 33.1744 13.4009 33.1092 13.3244 33.0729C13.2479 33.0366 13.1601 33.0321 13.0802 33.0604H13.0799ZM12.0223 32.0022L13.0082 32.1817C13.0273 32.1854 13.0467 32.1872 13.0662 32.1871C13.1458 32.1868 13.2224 32.1567 13.2811 32.1029C13.3398 32.049 13.3763 31.9752 13.3834 31.8959C13.3906 31.8166 13.3679 31.7374 13.3198 31.674C13.2718 31.6105 13.2017 31.5672 13.1234 31.5526L12.1375 31.3727C12.0548 31.3591 11.97 31.3785 11.9014 31.4268C11.8328 31.4751 11.786 31.5484 11.7709 31.6309C11.7558 31.7134 11.7736 31.7985 11.8207 31.8679C11.8677 31.9374 11.9401 31.9856 12.0223 32.0022ZM13.7074 30.8319C13.773 30.832 13.8369 30.8119 13.8906 30.7744C13.9444 30.7369 13.9853 30.6839 14.0079 30.6224C14.0305 30.5609 14.0337 30.4939 14.0171 30.4306C14.0004 30.3672 13.9647 30.3105 13.9148 30.2681L13.1513 29.6194C13.1195 29.5908 13.0823 29.5688 13.0418 29.5547C13.0014 29.5407 12.9585 29.5349 12.9158 29.5377C12.8731 29.5406 12.8314 29.5519 12.7931 29.5712C12.7549 29.5904 12.7209 29.6171 12.6931 29.6497C12.6654 29.6824 12.6445 29.7202 12.6317 29.7611C12.6188 29.8019 12.6143 29.8449 12.6184 29.8875C12.6225 29.9301 12.6351 29.9715 12.6554 30.0092C12.6758 30.0468 12.7035 30.08 12.7369 30.1068L13.5004 30.7554C13.5582 30.8047 13.6315 30.8318 13.7074 30.8319Z" fill="#6842FF" stroke="#6842FF" stroke-width="0.5"/>
</svg>
