<svg width="20" height="20" viewBox="0 0 20 20" fill="none" xmlns="http://www.w3.org/2000/svg">
<path d="M16.6667 3.33325C17.1087 3.33325 17.5326 3.50885 17.8452 3.82141C18.1577 4.13397 18.3333 4.55789 18.3333 4.99992V13.3333C18.3333 14.2583 17.5917 14.9999 16.6667 14.9999H20V16.6666H0V14.9999H3.33333C2.89131 14.9999 2.46738 14.8243 2.15482 14.5118C1.84226 14.1992 1.66667 13.7753 1.66667 13.3333V4.99992C1.66667 4.07492 2.40833 3.33325 3.33333 3.33325H16.6667ZM16.6667 4.99992H3.33333V13.3333H16.6667V4.99992ZM10 9.99992C11.8417 9.99992 13.3333 10.7499 13.3333 11.6666V12.4999H6.66667V11.6666C6.66667 10.7499 8.15833 9.99992 10 9.99992ZM10 5.83325C10.442 5.83325 10.8659 6.00885 11.1785 6.32141C11.4911 6.63397 11.6667 7.05789 11.6667 7.49992C11.6667 7.94195 11.4911 8.36587 11.1785 8.67843C10.8659 8.99099 10.442 9.16658 10 9.16658C9.075 9.16658 8.33333 8.42492 8.33333 7.49992C8.33333 6.57492 9.08333 5.83325 10 5.83325Z" fill="#333333"/>
</svg>
