<svg width="24" height="26" viewBox="0 0 24 26" fill="none" xmlns="http://www.w3.org/2000/svg">
<path fill-rule="evenodd" clip-rule="evenodd" d="M14.85 0.5C15.3747 0.500136 15.8861 0.665357 16.3116 0.97226C16.7372 1.27916 17.0554 1.71219 17.2213 2.21L17.9 4.25H22C22.3315 4.25 22.6495 4.3817 22.8839 4.61612C23.1183 4.85054 23.25 5.16848 23.25 5.5C23.25 5.83152 23.1183 6.14946 22.8839 6.38388C22.6495 6.6183 22.3315 6.75 22 6.75L21.9963 6.83875L20.9125 22.0175C20.8449 22.9633 20.4215 23.8483 19.7275 24.4944C19.0336 25.1406 18.1207 25.4999 17.1725 25.5H6.8275C5.87932 25.4999 4.96638 25.1406 4.27246 24.4944C3.57853 23.8483 3.15514 22.9633 3.0875 22.0175L2.00375 6.8375C2.00149 6.80839 2.00024 6.7792 2 6.75C1.66848 6.75 1.35054 6.6183 1.11612 6.38388C0.881696 6.14946 0.75 5.83152 0.75 5.5C0.75 5.16848 0.881696 4.85054 1.11612 4.61612C1.35054 4.3817 1.66848 4.25 2 4.25H6.1L6.77875 2.21C6.94462 1.71199 7.26304 1.27881 7.68887 0.971894C8.1147 0.664973 8.62634 0.499874 9.15125 0.5H14.8488H14.85ZM8.25 10.5C7.94383 10.5 7.64833 10.6124 7.41953 10.8159C7.19074 11.0193 7.04457 11.2997 7.00875 11.6038L7 11.75V19.25C7.00035 19.5686 7.12235 19.875 7.34106 20.1067C7.55977 20.3384 7.85869 20.4778 8.17674 20.4965C8.4948 20.5151 8.80797 20.4117 9.05229 20.2072C9.29661 20.0027 9.45362 19.7126 9.49125 19.3963L9.5 19.25V11.75C9.5 11.4185 9.3683 11.1005 9.13388 10.8661C8.89946 10.6317 8.58152 10.5 8.25 10.5ZM15.75 10.5C15.4185 10.5 15.1005 10.6317 14.8661 10.8661C14.6317 11.1005 14.5 11.4185 14.5 11.75V19.25C14.5 19.5815 14.6317 19.8995 14.8661 20.1339C15.1005 20.3683 15.4185 20.5 15.75 20.5C16.0815 20.5 16.3995 20.3683 16.6339 20.1339C16.8683 19.8995 17 19.5815 17 19.25V11.75C17 11.4185 16.8683 11.1005 16.6339 10.8661C16.3995 10.6317 16.0815 10.5 15.75 10.5ZM14.85 3H9.15L8.73375 4.25H15.2662L14.8488 3H14.85Z" fill="#EF5350"/>
</svg>
