<svg width="16" height="16" viewBox="0 0 16 16" fill="none" xmlns="http://www.w3.org/2000/svg">
<path d="M7.84845 3.47306L6.43316 2.25593C6.35273 2.18676 6.24811 2.15237 6.14232 2.16034C6.03653 2.1683 5.93824 2.21796 5.86907 2.29839L2.04381 6.74645C2.00956 6.78627 1.98349 6.83246 1.96709 6.88236C1.95069 6.93226 1.94427 6.98491 1.94822 7.03729C1.95216 7.08967 1.96638 7.14076 1.99007 7.18764C2.01376 7.23453 2.04645 7.27629 2.08627 7.31054L3.50156 8.52766C3.54139 8.56191 3.58757 8.58798 3.63748 8.60439C3.68738 8.62079 3.74002 8.6272 3.7924 8.62326C3.84478 8.61932 3.89588 8.60509 3.94276 8.58141C3.98964 8.55772 4.0314 8.52503 4.06565 8.4852L7.89091 4.03715C7.96008 3.95671 7.99447 3.8521 7.98651 3.74631C7.97854 3.64052 7.92888 3.54223 7.84845 3.47306V3.47306ZM13.914 8.68932L12.4987 7.47219C12.4183 7.40302 12.3136 7.36863 12.2078 7.3766C12.1021 7.38456 12.0038 7.43422 11.9346 7.51466L8.10934 11.9627C8.07509 12.0025 8.04902 12.0487 8.03262 12.0986C8.01621 12.1485 8.0098 12.2012 8.01374 12.2535C8.01769 12.3059 8.03191 12.357 8.0556 12.4039C8.07928 12.4508 8.11198 12.4925 8.1518 12.5268L9.56709 13.7439C9.60692 13.7782 9.6531 13.8042 9.703 13.8206C9.75291 13.8371 9.80555 13.8435 9.85793 13.8395C9.91031 13.8356 9.9614 13.8214 10.0083 13.7977C10.0552 13.774 10.0969 13.7413 10.1312 13.7015L13.9564 9.25341C14.0256 9.17297 14.06 9.06836 14.052 8.96257C14.0441 8.85678 13.9944 8.75849 13.914 8.68932V8.68932Z" stroke="#555555" stroke-width="1.2" stroke-linecap="round" stroke-linejoin="round"/>
<path d="M5.9783 6.26086L10.022 9.73837M1.39682 4.43115L3.48333 2.00494C3.5525 1.9245 3.65079 1.87484 3.75658 1.86688C3.86237 1.85891 3.96698 1.8933 4.04742 1.96247L4.95725 2.74491C5.03768 2.81408 5.08734 2.91238 5.0953 3.01816C5.10327 3.12395 5.06888 3.22857 4.99971 3.309L2.9132 5.73521C2.84403 5.81565 2.74574 5.86531 2.63995 5.87327C2.53417 5.88123 2.42955 5.84685 2.34912 5.77768L1.43929 4.99524C1.35885 4.92606 1.30919 4.82777 1.30123 4.72199C1.29326 4.6162 1.32765 4.51158 1.39682 4.43115V4.43115ZM12.517 13.9943L14.6035 11.5681C14.6726 11.4876 14.707 11.383 14.6991 11.2772C14.6911 11.1715 14.6414 11.0732 14.561 11.004L13.6512 10.2216C13.5707 10.1524 13.4661 10.118 13.3603 10.126C13.2545 10.1339 13.1563 10.1836 13.0871 10.264L11.0006 12.6902C10.9314 12.7707 10.897 12.8753 10.905 12.9811C10.9129 13.0869 10.9626 13.1851 11.043 13.2543L11.9529 14.0368C12.0333 14.1059 12.1379 14.1403 12.2437 14.1324C12.3495 14.1244 12.4478 14.0747 12.517 13.9943V13.9943Z" stroke="#555555" stroke-width="1.2" stroke-linecap="round" stroke-linejoin="round"/>
</svg>
