<svg width="22" height="16" viewBox="0 0 22 16" fill="none" xmlns="http://www.w3.org/2000/svg">
<path d="M3.05599 0.800049H18.956C20.456 0.800049 21.212 1.50805 21.212 2.94805V13.0521C21.212 14.4801 20.456 15.2001 18.956 15.2001H3.05599C1.55599 15.2001 0.799988 14.4801 0.799988 13.0521V2.94805C0.799988 1.50805 1.55599 0.800049 3.05599 0.800049ZM11 11.1201L19.088 4.48405C19.376 4.24405 19.604 3.69205 19.244 3.20005C18.896 2.70805 18.26 2.69605 17.84 2.99605L11 7.62805L4.17199 2.99605C3.75199 2.69605 3.11599 2.70805 2.76799 3.20005C2.40799 3.69205 2.63599 4.24405 2.92399 4.48405L11 11.1201Z" fill="#95979C"/>
</svg>
