<svg width="26" height="26" viewBox="0 0 26 26" fill="none" xmlns="http://www.w3.org/2000/svg">
<g clip-path="url(#clip0_8250_5074)">
<path d="M25.9876 13.2431C25.9876 12.1779 25.8991 11.4006 25.7077 10.5945H13.259V15.4023H20.5661C20.4188 16.5971 19.6233 18.3965 17.8554 19.6056L17.8306 19.7665L21.7667 22.7459L22.0394 22.7725C24.5438 20.5125 25.9876 17.1873 25.9876 13.2431Z" fill="#4285F4"/>
<path d="M13.259 25.9106C16.8388 25.9106 19.8442 24.759 22.0394 22.7726L17.8554 19.6056C16.7358 20.3686 15.233 20.9012 13.259 20.9012C9.75273 20.9012 6.77685 18.6412 5.71603 15.5176L5.56053 15.5305L1.46777 18.6254L1.41425 18.7708C3.59459 23.0028 8.07319 25.9106 13.259 25.9106Z" fill="#34A853"/>
<path d="M5.71604 15.5175C5.43613 14.7114 5.27414 13.8477 5.27414 12.9552C5.27414 12.0627 5.43613 11.199 5.70131 10.393L5.6939 10.2213L1.54984 7.07666L1.41426 7.13968C0.515633 8.89587 0 10.868 0 12.9552C0 15.0425 0.515633 17.0145 1.41426 18.7707L5.71604 15.5175Z" fill="#FBBC05"/>
<path d="M13.259 5.00937C15.7487 5.00937 17.4281 6.06018 18.3857 6.93833L22.1277 3.36839C19.8296 1.28115 16.8388 0 13.259 0C8.07319 0 3.59459 2.90773 1.41425 7.13978L5.7013 10.3931C6.77685 7.26938 9.75273 5.00937 13.259 5.00937Z" fill="#EB4335"/>
</g>
<defs>
<clipPath id="clip0_8250_5074">
<rect width="26" height="26" fill="white"/>
</clipPath>
</defs>
</svg>
