<svg width="52" height="52" viewBox="0 0 52 52" fill="none" xmlns="http://www.w3.org/2000/svg">
<path d="M0 23.8C0 14.6344 0 10.0516 2.06304 6.68502C3.21742 4.80124 4.80124 3.21742 6.68502 2.06304C10.0516 0 14.6344 0 23.8 0H28.2003C37.3659 0 41.9487 0 45.3153 2.06304C47.1991 3.21742 48.7829 4.80124 49.9373 6.68502C52.0003 10.0516 52.0003 14.6344 52.0003 23.8V28.2003C52.0003 37.3659 52.0003 41.9487 49.9373 45.3153C48.7829 47.1991 47.1991 48.7829 45.3153 49.9373C41.9487 52.0003 37.3659 52.0003 28.2003 52.0003H23.8C14.6344 52.0003 10.0516 52.0003 6.68502 49.9373C4.80124 48.7829 3.21742 47.1991 2.06304 45.3153C0 41.9487 0 37.3659 0 28.2003V23.8Z" fill="#6842FF" fill-opacity="0.1"/>
<path d="M19.3337 12.667C21.707 12.667 22.8937 15.547 21.227 17.227C19.547 18.8937 16.667 17.707 16.667 15.3337C16.667 14.6264 16.9479 13.9481 17.448 13.448C17.9481 12.9479 18.6264 12.667 19.3337 12.667ZM17.3337 19.3337H21.3337C22.0409 19.3337 22.7192 19.6146 23.2193 20.1147C23.7194 20.6148 24.0003 21.2931 24.0003 22.0003V29.3337H22.0003V39.3337H16.667V29.3337H14.667V22.0003C14.667 21.2931 14.9479 20.6148 15.448 20.1147C15.9481 19.6146 16.6264 19.3337 17.3337 19.3337ZM38.0003 20.667H30.0003V23.3337H38.0003M38.0003 24.667H34.0003V27.3337H38.0003M38.0003 12.667H30.0003V15.3337H38.0003M38.0003 16.667H34.0003V19.3337H38.0003M38.0003 28.667H30.0003V31.3337H38.0003M38.0003 36.667H30.0003V39.3337H38.0003M38.0003 32.667H34.0003V35.3337H38.0003" fill="#6842FF"/>
</svg>
