<svg width="16" height="13" viewBox="0 0 16 13" fill="none" xmlns="http://www.w3.org/2000/svg">
<path d="M1 7.42791L12.86 7.42791L9.23 11.4761C9.06026 11.6657 8.9786 11.9102 9.00298 12.1557C9.02736 12.4012 9.15578 12.6277 9.36 12.7853C9.56422 12.9429 9.8275 13.0187 10.0919 12.9961C10.3563 12.9734 10.6003 12.8542 10.77 12.6646L15.77 7.09365C15.8036 7.04934 15.8337 7.00279 15.86 6.95438C15.86 6.90795 15.86 6.8801 15.93 6.83367C15.9753 6.72722 15.9991 6.61389 16 6.49942C15.9991 6.38495 15.9753 6.27162 15.93 6.16516C15.93 6.11874 15.93 6.09089 15.86 6.04446C15.8337 5.99605 15.8036 5.9495 15.77 5.90519L10.77 0.334258C10.676 0.229447 10.5582 0.145159 10.4252 0.0873871C10.2921 0.0296164 10.1469 -0.000220299 10 1.90735e-06C9.76635 -0.000422478 9.53991 0.0751343 9.36 0.213554C9.25874 0.2915 9.17504 0.387229 9.11369 0.495255C9.05234 0.603283 9.01454 0.721484 9.00246 0.843095C8.99039 0.964705 9.00427 1.08733 9.04331 1.20395C9.08236 1.32058 9.1458 1.4289 9.23 1.52272L12.86 5.57093L1 5.57093C0.734783 5.57093 0.480429 5.66875 0.292892 5.84288C0.105356 6.017 0 6.25317 0 6.49942C0 6.74567 0.105356 6.98183 0.292892 7.15596C0.480429 7.33009 0.734783 7.42791 1 7.42791Z" fill="#181A20"/>
</svg>
