<svg width="46" height="46" viewBox="0 0 46 46" fill="none" xmlns="http://www.w3.org/2000/svg">
<g clip-path="url(#clip0_10956_7661)">
<path opacity="0.6" d="M37.7686 8.23047C38.7478 8.23047 39.687 8.61948 40.3794 9.31191C41.0718 10.0044 41.4608 10.9435 41.4608 11.9228V30.3842C41.4608 32.4334 39.8178 34.0765 37.7686 34.0765H45.1531V37.7688H0.845703V34.0765H8.23027C7.25102 34.0765 6.31187 33.6875 5.61943 32.995C4.927 32.3026 4.53799 31.3634 4.53799 30.3842V11.9228C4.53799 9.87354 6.18106 8.23047 8.23027 8.23047H37.7686ZM37.7686 11.9228H8.23027V30.3842H37.7686V11.9228ZM22.9994 22.9996C27.0794 22.9996 30.384 24.6611 30.384 26.6919V28.538H15.6148V26.6919C15.6148 24.6611 18.9194 22.9996 22.9994 22.9996ZM22.9994 13.7689C23.9787 13.7689 24.9178 14.1579 25.6103 14.8503C26.3027 15.5428 26.6917 16.4819 26.6917 17.4612C26.6917 18.4404 26.3027 19.3796 25.6103 20.072C24.9178 20.7645 23.9787 21.1535 22.9994 21.1535C20.9502 21.1535 19.3071 19.5104 19.3071 17.4612C19.3071 15.412 20.9687 13.7689 22.9994 13.7689Z" fill="#6842FF"/>
</g>
<defs>
<clipPath id="clip0_10956_7661">
<rect width="44.3074" height="44.3074" fill="white" transform="translate(0.845703 0.845703)"/>
</clipPath>
</defs>
</svg>
