<svg width="28" height="28" viewBox="0 0 28 28" fill="none" xmlns="http://www.w3.org/2000/svg">
<path d="M24.563 7.73436L22.8438 9.45366L18.5456 5.1501L20.2648 3.4308C20.6151 3.08057 21.2253 3.08057 21.5755 3.4308L24.563 6.42366C24.9239 6.7845 24.9239 7.37352 24.563 7.73436ZM10.1986 22.1149L5.90039 17.8114L17.012 6.68367L21.3102 10.9872L10.1986 22.1149ZM4.90809 19.8862L8.12378 23.1073L3.64517 24.3702L4.90809 19.8862ZM26.0966 4.89008L23.1091 1.89722C22.5254 1.31351 20.4187 0.209756 18.7366 1.89722L3.59741 17.0472C3.46475 17.1799 3.36923 17.3391 3.32147 17.5195L1.03972 25.6438C0.933591 26.0205 1.04503 26.4238 1.31565 26.7051C1.59159 26.9863 2.14345 27.0341 2.37693 26.981L10.4957 24.6939C10.6762 24.6461 10.8354 24.5506 10.968 24.418L26.0966 9.26793C27.3011 8.06336 27.3011 6.09996 26.0966 4.89008Z" fill="#181A20" stroke="#181A20" stroke-width="0.5"/>
</svg>
