<svg width="27" height="18" viewBox="0 0 27 18" fill="none" xmlns="http://www.w3.org/2000/svg">
<path d="M12 18H15C15.825 18 16.5 17.325 16.5 16.5C16.5 15.675 15.825 15 15 15H12C11.175 15 10.5 15.675 10.5 16.5C10.5 17.325 11.175 18 12 18ZM0 1.5C0 2.325 0.675 3 1.5 3H25.5C26.325 3 27 2.325 27 1.5C27 0.675 26.325 0 25.5 0H1.5C0.675 0 0 0.675 0 1.5ZM6 10.5H21C21.825 10.5 22.5 9.825 22.5 9C22.5 8.175 21.825 7.5 21 7.5H6C5.175 7.5 4.5 8.175 4.5 9C4.5 9.825 5.175 10.5 6 10.5Z" fill="#181A20"/>
</svg>
