<svg width="20" height="20" viewBox="0 0 20 20" fill="none" xmlns="http://www.w3.org/2000/svg">
<path d="M16.6668 15.8332V8.74984C16.6668 8.62047 16.6367 8.49287 16.5789 8.37716C16.521 8.26145 16.437 8.16079 16.3335 8.08317L10.5002 3.70817C10.3559 3.59999 10.1805 3.5415 10.0002 3.5415C9.81985 3.5415 9.64441 3.59999 9.50016 3.70817L3.66683 8.08317C3.56333 8.16079 3.47933 8.26145 3.42147 8.37716C3.36362 8.49287 3.3335 8.62047 3.3335 8.74984V15.8332C3.3335 16.0542 3.42129 16.2661 3.57757 16.4224C3.73385 16.5787 3.94582 16.6665 4.16683 16.6665H7.50016C7.72118 16.6665 7.93314 16.5787 8.08942 16.4224C8.2457 16.2661 8.3335 16.0542 8.3335 15.8332V13.3332C8.3335 13.1122 8.42129 12.9002 8.57757 12.7439C8.73385 12.5876 8.94582 12.4998 9.16683 12.4998H10.8335C11.0545 12.4998 11.2665 12.5876 11.4228 12.7439C11.579 12.9002 11.6668 13.1122 11.6668 13.3332V15.8332C11.6668 16.0542 11.7546 16.2661 11.9109 16.4224C12.0672 16.5787 12.2791 16.6665 12.5002 16.6665H15.8335C16.0545 16.6665 16.2665 16.5787 16.4228 16.4224C16.579 16.2661 16.6668 16.0542 16.6668 15.8332Z" stroke="#333333" stroke-width="1.6" stroke-linecap="round" stroke-linejoin="round"/>
</svg>
