<svg width="10" height="18" viewBox="0 0 10 18" fill="none" xmlns="http://www.w3.org/2000/svg">
<path d="M-5.60272e-07 9C-5.69681e-07 9.21525 0.0381683 9.4235 0.114504 9.62475C0.19084 9.82709 0.292621 9.99552 0.419848 10.13L7.44275 17.5561C7.72265 17.852 8.07888 18 8.51145 18C8.94402 18 9.30026 17.852 9.58015 17.5561C9.86005 17.2601 10 16.8834 10 16.426C10 15.9686 9.86005 15.5919 9.58015 15.296L3.62595 9L9.58015 2.70404C9.86005 2.40807 10 2.03139 10 1.57399C10 1.11659 9.86005 0.739912 9.58015 0.443949C9.30026 0.147984 8.94402 -4.61583e-08 8.51145 -6.50665e-08C8.07888 -8.39748e-08 7.72265 0.147983 7.44275 0.443949L0.419848 7.86996C0.267176 8.03139 0.159288 8.20628 0.0961832 8.39462C0.032062 8.58296 -5.50863e-07 8.78475 -5.60272e-07 9Z" fill="#181A20"/>
</svg>
