<svg width="20" height="20" viewBox="0 0 20 20" fill="none" xmlns="http://www.w3.org/2000/svg">
<path d="M6.87517 3.12256V4.50006C5.49999 5.20183 4.40105 6.34604 3.75534 7.74841C3.10963 9.15079 2.95474 10.7297 3.31562 12.2308C3.6765 13.7319 4.53215 15.0679 5.74474 16.0235C6.95733 16.9791 8.45628 17.4988 10.0002 17.4988C11.5441 17.4988 13.043 16.9791 14.2556 16.0235C15.4682 15.0679 16.3238 13.7319 16.6847 12.2308C17.0456 10.7297 16.8907 9.15079 16.245 7.74841C15.5993 6.34604 14.5003 5.20183 13.1252 4.50006V3.12256C14.858 3.84607 16.2868 5.14729 17.1688 6.80507C18.0509 8.46285 18.3316 10.3749 17.9634 12.2162C17.5952 14.0576 16.6007 15.7147 15.149 16.9058C13.6973 18.0969 11.878 18.7486 10.0002 18.7501C8.12079 18.7514 6.29905 18.1013 4.84522 16.9103C3.3914 15.7193 2.39541 14.0612 2.02689 12.2183C1.65837 10.3754 1.94011 8.46171 2.82413 6.80323C3.70815 5.14474 5.13978 3.84401 6.87517 3.12256Z" fill="#333333" stroke="#333333" stroke-width="0.5"/>
<path d="M10 1.25C10.4167 1.25 10.625 1.45833 10.625 1.875V8.125C10.625 8.54167 10.4167 8.75 10 8.75C9.58333 8.75 9.375 8.54167 9.375 8.125V1.875C9.375 1.45833 9.58333 1.25 10 1.25Z" fill="#333333" stroke="#333333" stroke-width="0.5"/>
</svg>
