<svg width="16" height="16" viewBox="0 0 16 16" fill="none" xmlns="http://www.w3.org/2000/svg">
<path d="M14.9257 11.7453L13.8657 10.6803C13.8607 10.6753 13.8507 10.6703 13.8457 10.6653C13.8439 10.6613 13.8411 10.6579 13.8376 10.6553C13.8341 10.6527 13.83 10.651 13.8257 10.6503L13.1157 9.93528L11.3607 8.18027L14.7057 4.83027C14.8229 4.7146 14.916 4.57681 14.9795 4.42488C15.043 4.27296 15.0757 4.10994 15.0757 3.94527C15.0757 3.78061 15.043 3.61759 14.9795 3.46567C14.916 3.31374 14.8229 3.17595 14.7057 3.06027L12.9407 1.29527C12.7028 1.06671 12.3857 0.939067 12.0557 0.939067C11.7258 0.939067 11.4087 1.06671 11.1707 1.29527L8.69574 3.77027L7.82574 4.64527L5.76574 2.58527L5.67074 2.50527L5.60574 2.48027L2.65574 1.34527L1.05074 0.725274C1.00602 0.707593 0.957107 0.703379 0.910021 0.713151C0.862934 0.722924 0.819735 0.746256 0.785744 0.780274C0.750989 0.814841 0.726867 0.858643 0.716234 0.906494C0.7056 0.954344 0.708901 1.00424 0.725744 1.05027L1.34074 2.64527V2.65027L1.35574 2.68027L2.48074 5.60527C2.49678 5.66889 2.53376 5.72525 2.58574 5.76527L4.64574 7.82527L3.43074 9.04027C3.41789 9.0488 3.40614 9.05888 3.39574 9.07027L2.37074 10.1003C2.35788 10.1088 2.34612 10.1189 2.33574 10.1303L1.27074 11.1953C1.25934 11.2057 1.24927 11.2174 1.24074 11.2303L0.920744 11.5453C0.803553 11.6609 0.710503 11.7987 0.646994 11.9507C0.583485 12.1026 0.550781 12.2656 0.550781 12.4303C0.550781 12.5949 0.583485 12.758 0.646994 12.9099C0.710503 13.0618 0.803553 13.1996 0.920744 13.3153L2.68574 15.0803C2.80142 15.1975 2.93921 15.2905 3.09114 15.354C3.24306 15.4175 3.40608 15.4502 3.57074 15.4502C3.73541 15.4502 3.89843 15.4175 4.05035 15.354C4.20228 15.2905 4.34007 15.1975 4.45574 15.0803L8.18074 11.3603L10.6657 13.8453C10.6707 13.8503 10.6757 13.8603 10.6807 13.8653L11.7457 14.9253C11.8606 15.0418 11.9977 15.1341 12.1488 15.1968C12.3 15.2595 12.4621 15.2913 12.6257 15.2903C12.79 15.2908 12.9528 15.2589 13.1047 15.1962C13.2566 15.1336 13.3946 15.0415 13.5107 14.9253L14.9257 13.5103C15.1593 13.276 15.2905 12.9586 15.2905 12.6278C15.2905 12.2969 15.1593 11.9796 14.9257 11.7453ZM8.87574 4.30027L9.40574 4.83027C9.45386 4.87092 9.51553 4.8919 9.57845 4.88903C9.64136 4.88617 9.70088 4.85966 9.7451 4.81481C9.78931 4.76996 9.81497 4.71008 9.81695 4.64713C9.81892 4.58418 9.79706 4.5228 9.75574 4.47527L9.22574 3.94527L9.93574 3.24027L10.4657 3.77027C10.5132 3.81476 10.5757 3.83975 10.6407 3.84027C10.7073 3.83979 10.7714 3.81488 10.8207 3.77027C10.8665 3.72252 10.8921 3.65893 10.8921 3.59277C10.8921 3.52662 10.8665 3.46303 10.8207 3.41527L10.2857 2.88527L10.9957 2.17527L12.2307 3.41527C12.2543 3.43904 12.2823 3.4579 12.3132 3.47077C12.3441 3.48365 12.3773 3.49027 12.4107 3.49027C12.4435 3.49023 12.4758 3.48356 12.5059 3.47067C12.536 3.45778 12.5631 3.43894 12.5857 3.41527C12.6092 3.39203 12.6278 3.36438 12.6405 3.33392C12.6532 3.30345 12.6597 3.27078 12.6597 3.23777C12.6597 3.20477 12.6532 3.17209 12.6405 3.14163C12.6278 3.11117 12.6092 3.08351 12.5857 3.06027L11.3507 1.82527L11.5257 1.64527C11.6664 1.50482 11.857 1.42593 12.0557 1.42593C12.2545 1.42593 12.4451 1.50482 12.5857 1.64527L14.3557 3.41527C14.4962 3.5559 14.5751 3.74652 14.5751 3.94527C14.5751 4.14402 14.4962 4.33465 14.3557 4.47527L11.0057 7.82527L8.17574 4.99527L8.87574 4.30027ZM7.60074 5.12527C7.60753 5.14629 7.61958 5.16523 7.63574 5.18027L7.64074 5.18527L7.81574 5.36027L9.05074 6.59527C9.06579 6.61144 9.08473 6.62349 9.10574 6.63027L10.6557 8.18027L10.8307 8.35527L11.0057 8.53027L12.5907 10.1153L12.2357 10.4653L10.6557 8.88527H10.6507L10.4757 8.71027V8.70527L10.3007 8.53527V8.53027L7.47074 5.70527V5.70027L7.29574 5.53027V5.52527L7.12074 5.35027H7.11574L6.02574 4.26027V4.25527C5.88505 4.11476 5.80592 3.92412 5.80574 3.72527V3.33027L7.47074 4.99527L7.60074 5.12527ZM10.8207 11.8803L9.24074 10.3003H9.23574L9.06074 10.1253V10.1203L8.88574 9.95027V9.94527L6.05574 7.12027V7.11527L5.88074 6.94527V6.94027L5.70574 6.76527H5.70074L4.61074 5.67027L4.59574 5.65527C4.46514 5.51546 4.39195 5.3316 4.39074 5.14027V4.64027C4.39074 4.57397 4.41708 4.51038 4.46397 4.4635C4.51085 4.41661 4.57444 4.39027 4.64074 4.39027H5.14074C5.32998 4.3897 5.51234 4.46121 5.65074 4.59027L5.67074 4.61027L6.76574 5.70527L6.94074 5.88027L6.93074 5.89027L7.10574 6.06527L7.11574 6.05527L9.94574 8.88527L10.1207 9.06028L10.3007 9.24027L11.8807 10.8203L10.8207 11.8803ZM2.23574 1.72027C2.11439 1.9375 1.93414 2.11603 1.71574 2.23527L1.39574 1.39527L2.23574 1.72027ZM2.71074 1.90027L5.30574 2.90027V3.72527C5.30576 3.78559 5.31078 3.84579 5.32074 3.90527C5.26126 3.89531 5.20106 3.89029 5.14074 3.89027H4.64074C4.44183 3.89027 4.25107 3.96929 4.11041 4.10994C3.96976 4.2506 3.89074 4.44136 3.89074 4.64027V5.14027C3.89077 5.20059 3.89578 5.26079 3.90574 5.32027C3.84626 5.31031 3.78606 5.30529 3.72574 5.30527H2.90074L1.90074 2.70527C2.2477 2.52745 2.53077 2.24612 2.71074 1.90027ZM4.10074 14.7303C3.95722 14.8651 3.76768 14.9402 3.57074 14.9402C3.3738 14.9402 3.18427 14.8651 3.04074 14.7303L1.27074 12.9603C1.13029 12.8196 1.0514 12.629 1.0514 12.4303C1.0514 12.2315 1.13029 12.0409 1.27074 11.9003L1.45074 11.7253L2.68574 12.9603C2.70881 12.984 2.7364 13.0029 2.76689 13.0158C2.79738 13.0287 2.83014 13.0353 2.86324 13.0353C2.89634 13.0353 2.92911 13.0287 2.95959 13.0158C2.99008 13.0029 3.01768 12.984 3.04074 12.9603C3.08652 12.9125 3.11208 12.8489 3.11208 12.7828C3.11208 12.7166 3.08652 12.653 3.04074 12.6053L1.80074 11.3703L2.51074 10.6603L3.04074 11.1953C3.08822 11.2398 3.15069 11.2647 3.21574 11.2653C3.2823 11.2648 3.34635 11.2399 3.39574 11.1953C3.44152 11.1475 3.46708 11.0839 3.46708 11.0178C3.46708 10.9516 3.44152 10.888 3.39574 10.8403L2.86574 10.3103L3.57074 9.60028L4.10074 10.1303C4.1469 10.1774 4.2098 10.2043 4.27574 10.2053C4.30921 10.2053 4.34235 10.1986 4.37324 10.1858C4.40414 10.1729 4.43218 10.154 4.45574 10.1303C4.50155 10.0835 4.52721 10.0207 4.52721 9.95527C4.52721 9.88984 4.50155 9.82701 4.45574 9.78027L3.92574 9.25027L4.99574 8.17527L7.82574 11.0053L4.10074 14.7303ZM8.35574 10.8303L8.18074 10.6553L5.35074 7.82527L5.17574 7.65027L4.99574 7.47027L3.33074 5.80527H3.72574C3.92459 5.80545 4.11523 5.88458 4.25574 6.02527L5.35074 7.12027L5.48074 7.25027C5.48751 7.2713 5.49956 7.29024 5.51574 7.30527L5.69074 7.48027L6.22074 8.01027C6.23579 8.02644 6.25473 8.03849 6.27574 8.04527L8.53074 10.3003L8.70574 10.4753L8.88574 10.6553L10.4657 12.2353L10.1157 12.5903L8.53074 11.0053L8.35574 10.8303ZM10.4657 12.9403L10.9807 12.4203L11.0057 12.3953L12.3957 11.0053L12.4207 10.9803L12.9407 10.4653L13.3357 10.8603L10.8607 13.3353L10.4657 12.9403ZM14.5707 13.1553L13.1557 14.5703C13.0864 14.6404 13.0039 14.696 12.9129 14.734C12.8219 14.7719 12.7243 14.7915 12.6257 14.7915C12.5272 14.7915 12.4296 14.7719 12.3386 14.734C12.2476 14.696 12.1651 14.6404 12.0957 14.5703L11.2107 13.6853L13.6857 11.2103L14.5707 12.0953C14.6408 12.1646 14.6965 12.2471 14.7344 12.3381C14.7724 12.4291 14.792 12.5267 14.792 12.6253C14.792 12.7239 14.7724 12.8215 14.7344 12.9124C14.6965 13.0034 14.6408 13.0859 14.5707 13.1553Z" fill="#333333" stroke="#333333" stroke-width="0.4"/>
</svg>
