<svg width="50" height="50" viewBox="0 0 50 50" fill="none" xmlns="http://www.w3.org/2000/svg">
<circle cx="24.9991" cy="25.0006" r="22.4991" stroke="#CBCBCB" stroke-width="5"/>
<path d="M2.55482 23.4451C2.19516 28.638 3.64719 33.7948 6.66349 38.0368C9.67979 42.2789 14.0737 45.3437 19.0967 46.7092C24.1196 48.0747 29.4607 47.6563 34.2099 45.5253C38.9592 43.3943 42.8227 39.6825 45.1422 35.0225C47.4617 30.3624 48.0937 25.0424 46.9305 19.9689C45.7672 14.8953 42.8807 10.3822 38.7628 7.19846C34.6449 4.01472 29.5504 2.35736 24.3473 2.50876" stroke="#FF9054" stroke-width="5" stroke-linecap="round"/>
<path d="M11.4067 19.9493V21.3073H16.5867L12.6527 30.1133H14.2627L18.1547 21.1393V19.9493H11.4067ZM19.9407 19.8793V25.7733H21.4527C21.7187 25.0173 22.3487 24.4993 23.2867 24.4993C24.6167 24.4993 25.2747 25.2553 25.2747 26.5853C25.2747 27.8453 24.6587 28.7833 23.2867 28.7833C22.2087 28.7833 21.4807 28.2233 21.2707 27.3553H19.7167C19.9547 28.9513 21.1727 30.1133 23.2727 30.1133C25.6387 30.1133 26.8007 28.5733 26.8007 26.5433C26.8007 25.0033 26.0307 23.1413 23.5247 23.1413C22.6147 23.1413 21.7887 23.5613 21.4107 24.0653V21.2793H26.1007V19.8793H19.9407ZM28.2101 22.3713C28.2101 23.7713 29.1201 24.5693 30.3381 24.5693C31.5561 24.5693 32.4661 23.7713 32.4661 22.3713C32.4661 20.9853 31.5561 20.1873 30.3381 20.1873C29.1201 20.1873 28.2101 20.9853 28.2101 22.3713ZM30.3381 21.1533C30.8701 21.1533 31.2201 21.5033 31.2201 22.3713C31.2201 23.2393 30.8701 23.6033 30.3381 23.6033C29.7921 23.6033 29.4561 23.2393 29.4561 22.3713C29.4561 21.5033 29.7921 21.1533 30.3381 21.1533ZM29.5961 30.1133H31.1641L36.7501 20.3693H35.1821L29.5961 30.1133ZM33.9081 28.0973C33.9081 29.4973 34.8181 30.2953 36.0361 30.2953C37.2401 30.2953 38.1501 29.4973 38.1501 28.0973C38.1501 26.6973 37.2401 25.9133 36.0361 25.9133C34.8181 25.9133 33.9081 26.6973 33.9081 28.0973ZM36.0221 26.8793C36.5541 26.8793 36.9041 27.2293 36.9041 28.0973C36.9041 28.9653 36.5541 29.3153 36.0221 29.3153C35.4901 29.3153 35.1401 28.9653 35.1401 28.0973C35.1401 27.2293 35.4901 26.8793 36.0221 26.8793Z" fill="#FF9054"/>
</svg>
