<svg width="20" height="43" viewBox="0 0 20 43" fill="none" xmlns="http://www.w3.org/2000/svg">
<path d="M10 43C15.5228 43 20 42.0923 20 40.9726C20 39.8528 15.5228 38.9451 10 38.9451C4.47715 38.9451 0 39.8528 0 40.9726C0 42.0923 4.47715 43 10 43Z" fill="#ECEDEB"/>
<path d="M11.2993 3.79681C11.2993 3.79681 11.112 4.8086 9.83325 4.55418C8.55449 4.29977 6.26371 2.74784 5.13767 3.10989C4.01162 3.47194 4.04828 3.97686 4.31095 3.97686C4.57363 3.97686 5.28835 4.19409 5.28835 4.19409C5.28835 4.19409 4.04828 4.12168 2.77155 5.20587C1.49482 6.29007 1.3808 8.2021 1.98352 8.41933C2.58422 8.63656 2.65956 7.62477 3.74895 7.01026C4.83834 6.39575 5.77705 6.46816 5.77705 6.46816C5.77705 6.46816 4.87499 7.1179 5.21301 7.40754C5.55103 7.69718 6.11507 7.04549 6.60376 6.97503C7.09246 6.90262 8.06986 7.37231 9.12056 6.97503C10.1733 6.57776 10.4726 5.96325 10.9613 5.09824C11.45 4.22931 11.5254 4.12168 11.2993 3.79681Z" fill="#393762"/>
<path d="M17.3106 2.56965C17.3106 2.56965 17.0845 2.89452 16.5958 3.14698C16.1071 3.39943 14.9811 3.50707 14.9811 3.50707L14.9058 2.71251C14.9058 2.71251 16.7852 2.24478 17.3106 2.56965Z" fill="#BDB3A1"/>
<path d="M14.4167 0.475677C13.2886 -0.281696 12.3886 -0.101649 11.6372 0.800545C10.8858 1.70274 10.8105 1.99238 10.9225 2.38966C10.953 2.4973 10.9835 2.5971 11.0121 2.68517L11.2381 3.43472C11.2381 3.43472 11.798 4.19405 12.0953 3.87896C12.2766 3.68522 12.3845 2.91806 12.4415 2.35443C12.7347 2.22918 13.0585 2.11176 13.4026 2.03152C14.6427 1.74188 15.0173 1.74188 15.0173 1.74188C15.0173 1.74188 15.5447 1.23305 14.4167 0.475677Z" fill="#393762"/>
<path d="M14.5676 7.94958C14.5676 7.94958 15.883 8.23922 16.1457 8.77936C16.4084 9.32146 16.9338 11.3431 17.5365 12.8226C18.1372 14.3021 17.8378 14.0144 18.1005 14.5918C18.3632 15.1691 19.0026 14.3393 19.0392 14.6994C19.0759 15.0614 18.9639 16.0713 18.4385 16.8658C17.9132 17.6604 17.6505 17.8776 16.9358 16.7582C16.2211 15.6388 14.983 12.2453 14.983 11.9556C14.983 11.666 14.307 9.35669 14.195 8.887C14.0789 8.41927 13.9669 7.65994 14.5676 7.94958Z" fill="#F6BA99"/>
<path d="M8.70735 25.2088C8.70735 25.2088 8.78269 28.9271 8.59535 29.4692C8.40802 30.0113 7.76864 30.2638 6.37788 30.299C4.98713 30.3342 4.01177 30.2266 3.7104 30.1914C3.40904 30.1562 2.92238 29.8665 2.58436 29.9741C2.24634 30.0818 2.09566 30.5515 2.13435 31.1288C2.171 31.7061 2.51105 31.8862 2.28503 32.4283C2.05901 32.9704 2.24838 33.7649 2.36037 34.2346C2.47237 34.7043 2.81038 34.992 2.96106 34.7043C3.11175 34.4147 3.89977 31.7081 3.89977 31.7081C3.89977 31.7081 8.10666 32.213 9.12274 32.213C10.1368 32.213 10.7008 32.2854 11.2649 30.9135C11.8289 29.5416 12.3176 26.291 12.3543 26.1481C12.3889 26.0033 9.42003 24.2694 8.70735 25.2088Z" fill="#F2957E"/>
<path d="M11.9755 4.15689C11.9755 4.15689 11.8248 5.45637 11.6374 6.25092C11.4501 7.04548 11.3361 7.37035 11.3361 7.37035C11.3361 7.37035 9.34463 6.97307 8.74394 7.11789C8.14325 7.26271 8.14325 7.94767 8.1799 9.17669C8.21655 10.4038 8.6686 15.0615 8.44258 15.6036C8.21655 16.1457 7.99257 16.9031 6.90318 18.0949C5.81379 19.2867 5.47577 20.9483 5.73844 22.0677C6.00112 23.1871 7.16585 24.1265 8.21859 25.3888C9.27133 26.653 11.0734 28.7823 11.0734 29.3244C11.0734 29.8665 10.9614 32.575 11.4501 33.9469C11.9388 35.3188 13.4782 38.0273 13.8162 39.2192C14.1542 40.411 14.4556 41.7476 14.7549 41.8553C15.0563 41.9629 18.5485 39.8337 18.8132 39.5812C19.0758 39.3287 19.3385 39.0039 18.9639 38.8943C18.5892 38.7867 16.8971 38.8943 16.4471 38.7867C15.997 38.679 15.883 38.6418 15.7323 38.5342C15.5817 38.4266 14.4556 33.624 14.2296 32.8294C14.0036 32.0349 14.0036 28.7862 13.5536 27.6668C13.1035 26.5473 12.6902 25.5356 12.6902 25.5356C12.6902 25.5356 13.7796 22.4297 13.7796 20.4453C13.7796 18.4589 13.9303 16.04 13.9303 15.6427C13.9303 15.2455 13.8936 14.6681 14.2316 14.3061C14.5696 13.944 15.433 13.1514 15.5837 12.7894C15.7344 12.4273 15.2457 10.7678 15.0196 10.0808C14.7936 9.39392 14.5696 7.94963 14.5696 7.94963L13.2155 7.51517L13.4029 5.81842C13.4029 5.81842 12.9895 4.73422 12.6881 4.40935C12.3888 4.08644 11.9755 4.15689 11.9755 4.15689Z" fill="#F6BA99"/>
<path d="M11.7129 3.50711C11.7129 3.50711 11.2995 2.60492 10.9981 3.07461C10.6968 3.5443 10.9615 4.30167 11.2608 4.41126C11.5622 4.5189 11.7495 4.30363 11.7495 4.30363C11.7495 4.30363 13.0649 6.43484 13.853 6.54247C14.641 6.65011 15.2437 4.80854 15.2804 4.01398C15.317 3.21943 15.1297 2.28005 14.641 2.13719C14.1523 1.99237 12.3869 2.24482 12.0855 2.46205C11.7882 2.67733 11.7129 3.50711 11.7129 3.50711Z" fill="#F6BA99"/>
<path d="M11.3748 3.03939L12.2768 2.67734C12.2768 2.67734 13.4415 3.39949 14.1176 3.29185C14.7936 3.18421 16.4084 2.64211 16.8604 2.60493C17.3104 2.5697 17.3104 2.5697 17.3104 2.5697C17.3104 2.5697 15.5063 1.66555 14.9056 1.45028C14.3049 1.23305 12.8775 1.55792 12.1628 1.9552C11.4481 2.35247 10.998 3.07462 10.998 3.07462C10.998 3.07462 11.1874 2.78498 11.3748 3.03939Z" fill="#DA5955"/>
<path d="M13.7795 20.4433C13.7795 19.59 13.808 18.6565 13.8385 17.8365C13.1116 17.9422 11.8369 18.0009 10.2853 17.5175C9.20201 17.1809 8.44453 16.9088 7.93751 16.7092C7.71759 17.0948 7.40401 17.5468 6.90513 18.0948C5.81574 19.2866 5.47772 20.9482 5.7404 22.0676C5.88293 22.6782 6.29833 23.234 6.8135 23.8191C6.91124 23.5765 7.38365 22.5823 8.6339 22.14C10.0613 21.6351 10.8514 22.14 10.8514 22.14L12.6921 25.5335C12.6901 25.5335 13.7795 22.4277 13.7795 20.4433Z" fill="#7EB9F5"/>
<path d="M13.8099 18.6272C13.8547 17.2005 13.928 15.9206 13.928 15.6407C13.928 15.2434 13.8913 14.6661 14.2293 14.3041C14.5673 13.944 15.4307 13.1494 15.5814 12.7874C15.7321 12.4253 15.2434 10.7657 15.0173 10.0788C14.7913 9.3919 14.5673 7.94761 14.5673 7.94761L13.5289 7.61491L14.0786 11.3783C14.0786 11.3783 13.3273 11.4859 12.1259 11.1611C10.9245 10.8362 10.3971 10.6561 10.3971 10.6561C10.3971 10.6561 11.1485 8.4897 11.1485 7.58751C11.1485 7.49749 11.1485 7.41529 11.1485 7.33505C10.9204 7.292 10.5132 7.22155 10.0896 7.16675C10.0611 7.73037 9.96746 8.58364 9.68442 9.46627C9.38102 10.4096 8.75793 11.0847 8.33032 11.4644C8.45453 13.2101 8.58892 15.2571 8.44435 15.6055C8.27534 16.0126 8.10633 16.541 7.5708 17.2846C8.07172 17.7876 9.1774 18.6409 11.0752 18.8914C12.415 19.0655 13.2764 18.8718 13.8099 18.6272Z" fill="#DA5955"/>
<path d="M9.64573 7.11789C9.64573 7.11789 8.55634 6.57579 7.84162 6.82825C7.1269 7.08071 6.37552 8.84987 6.11285 9.24715C5.85017 9.64443 2.61865 14.1945 2.61865 14.5194C2.61865 14.8443 3.7447 15.2063 4.19674 14.8815C4.64675 14.5566 8.81698 9.10428 8.81698 9.10428" fill="#F6BA99"/>
<path d="M4.4615 13.6172C4.4615 13.6172 5.4389 14.0497 6.37761 14.4842C7.31632 14.9167 8.70707 15.3511 8.70707 15.3511C8.70707 15.3511 9.57044 14.629 9.83515 14.5566C10.0978 14.4842 10.8492 14.9538 10.8492 14.9538C10.8492 14.9538 10.8859 15.2063 10.6985 15.2063C10.5112 15.2063 10.5112 15.2063 10.5112 15.2063C10.5112 15.2063 11.2259 15.3139 11.2259 15.4235C11.2259 15.5331 11.2626 15.8208 11.1506 15.9284C11.0386 16.0361 10.8879 16.2181 10.7006 16.3981C10.5132 16.5782 10.3625 16.8678 9.64782 16.8678C8.93309 16.8678 8.03307 16.3257 8.03307 16.3257C8.03307 16.3257 6.94368 16.1085 5.55293 15.8208C4.16217 15.5312 2.8101 14.7014 2.62277 14.5213C2.43544 14.3413 3.18681 13.6544 3.18681 13.6544" fill="#F6BA99"/>
<path d="M18.0981 13.077C18.0981 13.077 17.4221 12.9693 17.3468 13.1846C17.2714 13.4018 17.1961 14.1964 17.3468 14.3764C17.4974 14.5565 17.8355 14.4117 17.8721 14.1592C17.9108 13.9067 18.0981 13.077 18.0981 13.077Z" fill="#F8C6AB"/>
<path d="M18.0981 13.0771C18.0981 13.0771 17.7968 13.0047 17.8355 13.582C17.8721 14.1593 18.0228 15.1711 18.2122 15.2435C18.3995 15.3159 19.1509 15.3159 19.3769 15.0263C19.6029 14.7367 19.4136 13.5096 19.3402 13.2924C19.2629 13.0771 18.3628 13.0399 18.0981 13.0771Z" fill="#F6BA99"/>
<path d="M3.48446 32.0328C3.33378 32.0328 3.29713 31.9604 3.33378 31.2031C3.37043 30.4457 3.71048 30.1913 3.71048 30.1913C3.40912 30.156 2.92246 29.8664 2.58241 29.974C2.24439 30.0817 2.09371 30.5514 2.1324 31.1287C2.16905 31.706 2.5091 31.8861 2.28308 32.4282C2.05705 32.9703 2.24642 33.7648 2.35842 34.2345C2.47041 34.7042 2.80843 34.9919 2.95911 34.7042C3.07925 34.4752 3.60053 32.7237 3.81026 32.0113C3.67994 32.0133 3.55166 32.0328 3.48446 32.0328Z" fill="#DA5955"/>
<path d="M18.964 38.8942C18.5893 38.7865 16.8972 38.8942 16.4472 38.7865C16.0929 38.7024 15.9483 38.6613 15.8302 38.5947C15.7182 38.6358 15.6144 38.72 15.5838 38.8942C15.5085 39.3267 15.5085 39.7239 15.5085 39.7239C15.5085 39.7239 14.7938 40.1564 14.3438 40.3013C14.2684 40.3247 14.1972 40.3365 14.1279 40.3443C14.3458 41.1291 14.5515 41.7788 14.7571 41.8532C15.0585 41.9608 18.5507 39.8316 18.8154 39.5791C19.076 39.3267 19.3387 39.0018 18.964 38.8942Z" fill="#DA5955"/>
<path d="M8.25513 17.8425C8.25513 17.8425 6.82772 18.9267 6.90306 19.2516C6.9784 19.5765 7.27773 19.6841 7.01505 19.9737C6.75238 20.2634 6.45101 20.371 6.4897 20.5883C6.52636 20.8055 7.27773 22.3222 7.61778 22.5746" stroke="#393762" stroke-width="0.5" stroke-miterlimit="10"/>
<path d="M11.5621 19.1067C11.5621 19.1067 11.1121 19.6488 11.2608 19.8288C11.4115 20.0089 12.1242 19.9737 11.7108 20.3709C11.2974 20.7682 10.7721 20.913 11.1101 21.0579C11.4481 21.2027 11.7495 21.2751 11.7495 21.2751" stroke="#393762" stroke-width="0.5" stroke-miterlimit="10"/>
</svg>
