<svg width="8" height="14" viewBox="0 0 8 14" fill="none" xmlns="http://www.w3.org/2000/svg">
<path d="M8 7C8 7.16741 7.96946 7.32939 7.9084 7.48592C7.84733 7.64329 7.7659 7.77429 7.66412 7.87892L2.0458 13.6547C1.82188 13.8849 1.53689 14 1.19084 14C0.844783 14 0.559796 13.8849 0.335877 13.6547C0.111959 13.4245 -3.79616e-08 13.1315 -5.35121e-08 12.7758C-6.90627e-08 12.42 0.111959 12.1271 0.335877 11.8969L5.09924 7L0.335877 2.10314C0.111958 1.87295 -5.42897e-07 1.57997 -5.58447e-07 1.22422C-5.73998e-07 0.868461 0.111958 0.575487 0.335877 0.345293C0.559795 0.115099 0.844782 -3.69266e-08 1.19084 -5.20532e-08C1.53689 -6.71798e-08 1.82188 0.115099 2.0458 0.345293L7.66412 6.12108C7.78626 6.24664 7.87257 6.38266 7.92305 6.52915C7.97435 6.67564 8 6.83259 8 7Z" fill="#595F69"/>
</svg>
