<svg width="26" height="26" viewBox="0 0 26 26" fill="none" xmlns="http://www.w3.org/2000/svg">
<path d="M19.5334 18.0016L24.1733 22.6404L22.6404 24.1733L18.0016 19.5334C16.2756 20.9171 14.1287 21.6697 11.9165 21.6665C6.5345 21.6665 2.1665 17.2985 2.1665 11.9165C2.1665 6.5345 6.5345 2.1665 11.9165 2.1665C17.2985 2.1665 21.6665 6.5345 21.6665 11.9165C21.6697 14.1287 20.9171 16.2756 19.5334 18.0016ZM17.3603 17.1978C18.7351 15.7839 19.5029 13.8886 19.4998 11.9165C19.4998 7.72617 16.1058 4.33317 11.9165 4.33317C7.72617 4.33317 4.33317 7.72617 4.33317 11.9165C4.33317 16.1058 7.72617 19.4998 11.9165 19.4998C13.8886 19.5029 15.7839 18.7351 17.1978 17.3603L17.3603 17.1978Z" fill="#181A20"/>
</svg>
