<svg width="36" height="42" viewBox="0 0 36 42" fill="none" xmlns="http://www.w3.org/2000/svg">
<path d="M15.1074 36.8626C16.5375 37.4439 17.7956 39.6789 17.7956 39.6789L17.3841 35.981C17.3841 35.981 16.6191 35.9741 15.9722 36.3522C15.326 36.7303 15.1074 36.8626 15.1074 36.8626Z" fill="#FFD1A3"/>
<path d="M27.0738 1.35498H18.021V2.96252H27.0738V1.35498Z" fill="#545557"/>
<path d="M27.0735 1.35498H25.4902V10.733H27.0735V1.35498Z" fill="#545557"/>
<path d="M8.92692 2.96289L18.916 2.96289V1.35535L8.92692 1.35535V2.96289Z" fill="#545557"/>
<path d="M14.0075 2.90246C14.3976 2.90246 14.7138 2.56326 14.7138 2.14483C14.7138 1.72641 14.3976 1.38721 14.0075 1.38721C13.6175 1.38721 13.3013 1.72641 13.3013 2.14483C13.3013 2.56326 13.6175 2.90246 14.0075 2.90246Z" fill="#7E827A"/>
<path d="M21.841 2.90246C22.2311 2.90246 22.5473 2.56326 22.5473 2.14483C22.5473 1.72641 22.2311 1.38721 21.841 1.38721C21.451 1.38721 21.1348 1.72641 21.1348 2.14483C21.1348 2.56326 21.451 2.90246 21.841 2.90246Z" fill="#7E827A"/>
<path d="M22.9555 0.162611L22.171 2.51951L21.6313 2.31289L22.3653 0.1082C22.3929 0.0248608 22.4827 -0.0185304 22.5636 0.0124633L22.9555 0.162611Z" fill="#7E827A"/>
<path d="M28.6971 0.636205H22.2832V0.282876C22.2832 0.127218 22.4067 0.000488281 22.5598 0.000488281H28.6971V0.636205Z" fill="#7E827A"/>
<path d="M35.4733 5.30662L28.3384 0.637582L28.7006 0.000488281L35.8585 4.68468C35.9968 4.77491 36.0407 4.96087 35.9584 5.10619L35.9044 5.20055C35.8167 5.35483 35.6211 5.40305 35.4733 5.30662Z" fill="#545557"/>
<path d="M13.0449 0.162611L13.8295 2.51951L14.3691 2.31289L13.6352 0.1082C13.6075 0.0248608 13.5178 -0.0185304 13.4368 0.0124633L13.0449 0.162611Z" fill="#7E827A"/>
<path d="M7.30322 0.636205H13.7171V0.282876C13.7171 0.127218 13.5936 0.000488281 13.4405 0.000488281H7.30322V0.636205Z" fill="#7E827A"/>
<path d="M0.526276 5.30662L7.66192 0.637582L7.29967 0.000488281L0.141768 4.68468C0.0034807 4.77491 -0.0403666 4.96087 0.0419314 5.10619L0.0958974 5.20055C0.182917 5.35483 0.379218 5.40305 0.526276 5.30662Z" fill="#545557"/>
<path d="M8.92703 10.7334H10.5103L10.5103 1.35537H8.92703L8.92703 10.7334Z" fill="#545557"/>
<path d="M30.6281 0.969126C30.5687 0.793495 30.3157 0.793495 30.0783 0.490444C29.8402 0.187394 29.7363 0.378867 29.6324 0.155712C29.5285 -0.0674434 29.3349 -0.0357609 29.2904 0.155712C29.2459 0.347184 29.0523 0.793495 28.8593 0.681917C28.6664 0.570339 28.4431 0.889231 28.5173 1.46296C28.5915 2.03669 28.9038 1.94164 28.3392 2.99336C27.7746 4.04508 26.3917 5.70429 25.9458 6.94748C25.4999 8.19067 25.1579 8.90904 23.9983 9.8974C22.8388 10.8858 22.2141 11.8266 21.8424 11.9382C21.4707 12.0497 20.1479 12.6717 19.8652 12.7991C19.5826 12.9265 18.9586 12.8149 18.8986 11.3004L18.0007 11.1909L17.1028 11.3004C17.0435 12.8149 16.4188 12.9265 16.1362 12.7991C15.8535 12.6717 14.5307 12.0497 14.159 11.9382C13.7873 11.8266 13.1627 10.8858 12.0031 9.8974C10.8435 8.90904 10.5015 8.19136 10.0556 6.94748C9.60968 5.7036 8.2268 4.04577 7.66218 2.99336C7.09756 1.94095 7.40922 2.03669 7.48409 1.46296C7.5583 0.889231 7.33569 0.570339 7.14209 0.681917C6.94848 0.793495 6.75555 0.347184 6.71103 0.155712C6.66651 -0.0357609 6.47291 -0.0674434 6.36902 0.155712C6.26514 0.378867 6.16058 0.187394 5.92313 0.490444C5.68501 0.793495 5.43271 0.793495 5.37335 0.969126C5.31399 1.14476 5.26947 1.09654 5.37335 1.55938C5.47724 2.02154 5.8044 2.38864 6.22062 2.73921C6.63683 3.08979 7.57381 6.74154 8.28684 8.30432C9.00054 9.86709 9.81812 11.1743 11.4088 13.0402C12.9994 14.906 14.754 17.3614 15.3928 19.0034C16.0316 20.6453 15.8164 22.0408 15.1473 23.5002C14.4781 24.959 13.5863 26.2986 14.6568 27.4468C15.7274 28.5949 16.9315 28.5949 17.7565 28.2602C17.8435 28.225 17.9238 28.1968 18 28.1734C18.0763 28.1968 18.1565 28.2244 18.2436 28.2602C19.0686 28.5949 20.2727 28.5949 21.3432 27.4468C22.4138 26.2986 21.5213 24.959 20.8528 23.5002C20.1836 22.0414 19.9684 20.646 20.6073 19.0034C21.2468 17.3607 23.0007 14.9053 24.5913 13.0402C26.1819 11.1743 26.9995 9.86709 27.7132 8.30432C28.4269 6.74154 29.3632 3.09048 29.7794 2.73921C30.1957 2.38864 30.5228 2.02154 30.6267 1.55938C30.7319 1.09654 30.6874 1.14407 30.6281 0.969126Z" fill="#FFB468"/>
<path d="M20.8532 23.4995C20.7992 23.3811 20.7486 23.2633 20.7007 23.1455C18.3903 23.2654 16.1231 23.4616 15.1227 23.5532C14.7085 24.4486 14.2201 25.2979 14.1648 26.0851C13.4815 28.4434 13.4855 31.6109 13.6811 33.1448C13.8768 34.6786 14.2687 35.3722 14.2687 35.3722L16.2668 35.0988C16.2668 35.0988 16.2863 33.2991 16.7956 32.0662C17.2058 31.073 17.7454 29.418 17.9229 28.1975C17.9485 28.1885 17.9748 28.1796 17.9998 28.172C18.076 28.1954 18.1563 28.223 18.2433 28.2588C19.0683 28.5935 20.2724 28.5935 21.3429 27.4454C22.4142 26.2979 21.5217 24.9583 20.8532 23.4995Z" fill="#735370"/>
<path d="M21.4974 26.6528C22.0789 28.9498 22.5619 31.4576 22.3136 33.4887C22.0654 35.5198 21.7261 35.8139 21.4974 35.8559C21.2687 35.8979 20.0019 36.0102 18.8922 36.0377C17.7818 36.066 16.1392 36.3298 15.5908 36.7217C15.0424 37.1136 15.4053 36.8794 15.4053 36.8794L14.8306 34.9171C14.8306 34.9171 15.7581 35.141 16.6722 34.581C17.5862 34.0211 18.2783 33.3626 18.9057 33.1381C19.5323 32.9143 19.6895 32.928 19.6895 32.928C19.6895 32.928 18.7073 30.4485 18.4604 29.4402C18.2136 28.4319 17.9397 27.2128 17.9397 27.2128L21.4974 26.6528Z" fill="#FFB468"/>
<path d="M21.8281 26.4438L18.9821 26.8729C18.6333 27.0438 18.1584 26.9411 17.867 27.0844C17.9648 27.5121 18.29 28.747 18.4593 29.4399C18.7062 30.4482 19.6884 32.9277 19.6884 32.9277C19.6884 32.9277 19.5319 32.914 18.9045 33.1378C18.3203 33.3465 17.6788 33.9326 16.8545 34.465C17.2019 35.1028 17.3827 35.7199 17.4731 36.2282C17.9304 36.1208 18.4242 36.0485 18.891 36.0368C20.0014 36.0085 21.2682 35.8969 21.4962 35.8549C21.7249 35.8129 22.0642 35.5188 22.3125 33.4877C22.5621 31.4566 22.4096 28.7415 21.8281 26.4438Z" fill="#735370"/>
<path d="M20.8535 23.4997C20.7814 23.342 20.7159 23.1856 20.6545 23.0293H15.347C15.2856 23.1856 15.2202 23.342 15.148 23.4997C15.1318 23.5342 15.1163 23.5686 15.1001 23.6037C16.2024 23.6037 18.9135 23.6037 20.9021 23.6037C20.8852 23.5686 20.8691 23.5342 20.8535 23.4997Z" fill="#70E8CB"/>
<path d="M20.7587 17.7672C18.6129 17.075 18.7431 14.8655 19.7381 12.8364C19.5694 12.8529 19.3542 12.7799 19.1856 12.501L18.8402 12.9211C18.3984 13.459 17.6158 13.459 17.174 12.9211L16.8286 12.501C16.66 12.7799 16.4448 12.8522 16.2761 12.8364C17.2711 14.8648 17.4013 17.075 15.2555 17.7672C15.1165 17.8119 14.9864 17.8539 14.8643 17.8932C15.0801 18.2892 15.2602 18.6632 15.3924 19.0028C15.4774 19.2204 15.5456 19.4332 15.6016 19.6433L18.0071 19.5717L20.4126 19.6433C20.4679 19.4339 20.5368 19.2204 20.6217 19.0028C20.754 18.6639 20.9341 18.2892 21.1499 17.8932C21.0272 17.8539 20.897 17.8119 20.7587 17.7672Z" fill="#735370"/>
<path d="M15.4077 19.0425C15.4853 19.2464 15.5494 19.4461 15.602 19.6431L18.0075 19.5714L20.4131 19.6431C20.465 19.4461 20.5298 19.2464 20.6073 19.0425H15.4077Z" fill="#70E8CB"/>
<path d="M15.6201 36.8732C15.5473 36.4551 15.328 35.6272 15.3105 35.4096C15.2936 35.2098 15.322 35.1044 15.2059 34.9502C15.0596 34.9564 14.93 34.9302 14.8201 34.8641C14.2096 34.4956 13.6564 34.1478 13.6942 34.3117C13.7198 34.4226 14.13 35.694 14.3924 36.5054C14.5077 36.7705 14.6076 36.9985 14.6771 37.1549C14.8181 37.1108 15.1729 37.0006 15.6201 36.8732Z" fill="#363942"/>
<path d="M15.5582 36.5674C15.0232 37.4318 15.2391 38.8878 15.2391 38.8878L14.6562 36.5674H15.5582Z" fill="#363942"/>
<path d="M13.692 34.2704C12.7725 34.3586 12.7975 35.5329 12.9877 35.9144C13.1786 36.2967 13.6555 37.033 13.5409 37.7899C13.4262 38.5468 13.3311 39.2018 14.0562 39.6516C14.7814 40.102 14.9635 40.0401 15.1868 39.1199C15.4101 38.199 15.315 37.8305 15.0101 36.7871C14.7052 35.7443 14.7605 34.1678 13.692 34.2704Z" fill="#70E8CB"/>
<path d="M16.778 36.366C16.6384 36.8709 17.1147 38.1031 16.7072 38.0679C16.4333 38.0445 16.4549 38.1375 16.465 38.3937C17.0324 38.7305 17.4884 39.1293 17.6901 39.6128C18.0213 40.4069 18.0213 40.4069 18.0213 40.4069L17.5734 36.0244C17.5734 36.0244 17.2071 36.1828 16.778 36.366Z" fill="#363942"/>
<path d="M17.9161 35.7876C17.1828 35.9405 17.1201 37.1121 17.4958 38.024C17.8715 38.9359 17.8304 39.6122 17.9161 40.6158C18.0024 41.6193 18.704 42.392 19.3077 41.7859C19.9121 41.1798 19.931 39.9883 19.5613 39.3822C19.191 38.7761 19.2693 38.086 19.1134 37.0618C18.9569 36.0383 18.3168 35.7043 17.9161 35.7876Z" fill="#70E8CB"/>
<path d="M17.9997 12.4348C19.0283 12.4348 19.8622 11.3459 19.8622 10.0028C19.8622 8.65963 19.0283 7.5708 17.9997 7.5708C16.9711 7.5708 16.1372 8.65963 16.1372 10.0028C16.1372 11.3459 16.9711 12.4348 17.9997 12.4348Z" fill="#262626"/>
<path d="M18.3738 7.80434C19.2008 8.33468 19.6036 8.89808 19.7843 10.0834C19.9651 11.2688 19.7843 12.1896 19.7843 12.1896C19.7843 12.1896 20.1823 10.6647 20.1709 9.38365C20.1594 8.10257 19.7749 7.23681 19.1401 6.83389C18.5054 6.43097 16.5875 6.30355 16.0384 7.68794C15.4893 9.07233 16.1916 12.5002 16.1916 12.5002C16.1916 12.5002 15.9069 9.74317 16.5808 8.86502C17.2547 7.98686 18.3738 7.80434 18.3738 7.80434Z" fill="#262626"/>
<path d="M16.6483 7.01765C16.4047 6.19391 17.055 5.71247 17.9353 5.65117C18.8163 5.58987 19.5752 6.29722 19.3695 7.07206C19.1637 7.84691 16.6483 7.01765 16.6483 7.01765Z" fill="#262626"/>
</svg>
