<svg width="14" height="14" viewBox="0 0 14 14" fill="none" xmlns="http://www.w3.org/2000/svg">
<path d="M7.00016 12.3335C9.9335 12.3335 12.3335 9.9335 12.3335 7.00016C12.3335 4.06683 9.9335 1.66683 7.00016 1.66683C4.06683 1.66683 1.66683 4.06683 1.66683 7.00016C1.66683 9.9335 4.06683 12.3335 7.00016 12.3335ZM7.00016 0.333496C10.6668 0.333496 13.6668 3.3335 13.6668 7.00016C13.6668 10.6668 10.6668 13.6668 7.00016 13.6668C3.3335 13.6668 0.333496 10.6668 0.333496 7.00016C0.333496 3.3335 3.3335 0.333496 7.00016 0.333496ZM10.3335 6.66683V7.66683H6.3335V3.66683H7.3335V6.66683H10.3335Z" fill="#555555"/>
</svg>
