<svg width="17" height="12" viewBox="0 0 17 12" fill="none" xmlns="http://www.w3.org/2000/svg">
<path d="M2.48302 0.599609H14.408C15.533 0.599609 16.1 1.13061 16.1 2.21061V9.78861C16.1 10.8596 15.533 11.3996 14.408 11.3996H2.48302C1.35802 11.3996 0.791016 10.8596 0.791016 9.78861V2.21061C0.791016 1.13061 1.35802 0.599609 2.48302 0.599609ZM8.44102 8.33961L14.507 3.36261C14.723 3.18261 14.894 2.76861 14.624 2.39961C14.363 2.03061 13.886 2.02161 13.571 2.24661L8.44102 5.72061L3.32002 2.24661C3.00502 2.02161 2.52802 2.03061 2.26702 2.39961C1.99702 2.76861 2.16802 3.18261 2.38402 3.36261L8.44102 8.33961Z" fill="#999999"/>
</svg>
