<svg width="72" height="72" viewBox="0 0 72 72" fill="none" xmlns="http://www.w3.org/2000/svg">
<path d="M0 32.9536C0 20.2629 0 13.9175 2.8565 9.25613C4.45486 6.64784 6.64784 4.45486 9.25613 2.8565C13.9175 0 20.2629 0 32.9537 0H39.0464C51.7371 0 58.0825 0 62.7439 2.8565C65.3522 4.45486 67.5451 6.64784 69.1435 9.25613C72 13.9175 72 20.2629 72 32.9537V39.0464C72 51.7371 72 58.0825 69.1435 62.7439C67.5451 65.3522 65.3522 67.5451 62.7439 69.1435C58.0825 72 51.7371 72 39.0463 72H32.9536C20.2629 72 13.9175 72 9.25613 69.1435C6.64784 67.5451 4.45486 65.3522 2.8565 62.7439C0 58.0825 0 51.7371 0 39.0463V32.9536Z" fill="#6842FF" fill-opacity="0.1"/>
<path d="M48.8333 54.3332V41.3165C48.8329 39.6309 48.5005 37.9619 47.855 36.4048C47.2095 34.8477 46.2636 33.433 45.0713 32.2415L41.4963 28.6665V40.7427C41.4963 42.3743 39.5218 43.1938 38.3668 42.0388L35.9926 39.6665C35.0759 38.7498 32.8741 38.1998 31.4056 39.6665C29.9389 41.1332 30.4889 43.3332 31.4056 44.2498L41.4963 54.3332" stroke="#6842FF" stroke-width="3" stroke-linecap="round" stroke-linejoin="round"/>
<path d="M34.1666 17.6665H37.8333C38.8058 17.6665 39.7384 18.0528 40.426 18.7404C41.1137 19.4281 41.5 20.3607 41.5 21.3332V24.9998M34.1666 17.6665C34.1666 20.1103 35.6333 24.9998 41.5 24.9998M34.1666 17.6665H30.5M41.5 24.9998V35.9998M30.5 17.6665H26.8333C25.8608 17.6665 24.9282 18.0528 24.2406 18.7404C23.5529 19.4281 23.1666 20.3607 23.1666 21.3332V24.9998M30.5 17.6665C30.5 20.1103 29.0333 24.9998 23.1666 24.9998M23.1666 35.9998V39.6665C23.1666 40.639 23.5529 41.5716 24.2406 42.2592C24.9282 42.9469 25.8608 43.3332 26.8333 43.3332H30.5C30.5 40.8893 29.0333 35.9998 23.1666 35.9998ZM23.1666 35.9998V24.9998" stroke="#6842FF" stroke-width="3" stroke-linecap="round" stroke-linejoin="round"/>
<path d="M30.5 30.4998C30.5 31.5124 31.3208 32.3332 32.3333 32.3332C33.3458 32.3332 34.1666 31.5124 34.1666 30.4998C34.1666 29.4873 33.3458 28.6665 32.3333 28.6665C31.3208 28.6665 30.5 29.4873 30.5 30.4998Z" stroke="#6842FF" stroke-width="3" stroke-linecap="round" stroke-linejoin="round"/>
</svg>
