<svg width="18" height="18" viewBox="0 0 18 18" fill="none" xmlns="http://www.w3.org/2000/svg">
<path d="M3.60002 7.2V5.4C3.60002 3.96783 4.16895 2.59432 5.18165 1.58162C6.19434 0.568927 7.56786 0 9.00002 0C10.4322 0 11.8057 0.568927 12.8184 1.58162C13.8311 2.59432 14.4 3.96783 14.4 5.4V7.2H15.3C15.7774 7.2 16.2353 7.38964 16.5728 7.72721C16.9104 8.06477 17.1 8.52261 17.1 9V16.2C17.1 16.6774 16.9104 17.1352 16.5728 17.4728C16.2353 17.8104 15.7774 18 15.3 18H2.70002C2.22263 18 1.7648 17.8104 1.42723 17.4728C1.08967 17.1352 0.900024 16.6774 0.900024 16.2V9C0.900024 8.01 1.71002 7.2 2.70002 7.2H3.60002ZM8.10002 13.257V15.3H9.90002V13.257C10.2432 13.0589 10.5114 12.7531 10.663 12.387C10.8146 12.0209 10.8412 11.615 10.7387 11.2323C10.6361 10.8495 10.4102 10.5113 10.0958 10.2701C9.78144 10.0289 9.39627 9.89815 9.00002 9.89815C8.60378 9.89815 8.21861 10.0289 7.90425 10.2701C7.58989 10.5113 7.36391 10.8495 7.26136 11.2323C7.1588 11.615 7.18541 12.0209 7.33704 12.387C7.48868 12.7531 7.75687 13.0589 8.10002 13.257ZM6.30002 5.4V7.2H11.7V5.4C11.7 4.68392 11.4156 3.99716 10.9092 3.49081C10.4029 2.98446 9.71611 2.7 9.00002 2.7C8.28394 2.7 7.59718 2.98446 7.09084 3.49081C6.58449 3.99716 6.30002 4.68392 6.30002 5.4Z" fill="#95979C"/>
</svg>
