<svg width="18" height="14" viewBox="0 0 18 14" fill="none" xmlns="http://www.w3.org/2000/svg">
<path d="M9.83333 12.8331V11.7914C9.83333 10.0656 8.23417 8.66643 6.26167 8.66643H5.07167C3.09917 8.66643 1.5 10.0656 1.5 11.7914V12.8331M11.7383 8.66643H12.9283C14.9008 8.66643 16.5 10.0656 16.5 11.7914V12.8331M11.5 1.3081C11.877 1.17526 12.2804 1.13476 12.6763 1.19C13.0721 1.24523 13.449 1.39459 13.7753 1.62555C14.1015 1.85651 14.3676 2.16233 14.5513 2.51736C14.735 2.87239 14.8308 3.26629 14.8308 3.66602C14.8308 4.06574 14.735 4.45964 14.5513 4.81467C14.3676 5.16971 14.1015 5.47553 13.7753 5.70648C13.449 5.93744 13.0721 6.0868 12.6763 6.14203C12.2804 6.19727 11.877 6.15677 11.5 6.02393M8.16667 3.66643C8.16667 4.32947 7.90327 4.96536 7.43443 5.4342C6.96559 5.90304 6.32971 6.16643 5.66667 6.16643C5.00363 6.16643 4.36774 5.90304 3.8989 5.4342C3.43006 4.96536 3.16667 4.32947 3.16667 3.66643C3.16667 3.00339 3.43006 2.36751 3.8989 1.89867C4.36774 1.42982 5.00363 1.16643 5.66667 1.16643C6.32971 1.16643 6.96559 1.42982 7.43443 1.89867C7.90327 2.36751 8.16667 3.00339 8.16667 3.66643V3.66643Z" stroke="#333333" stroke-width="1.6" stroke-linecap="round" stroke-linejoin="round"/>
</svg>
