<svg width="16" height="16" viewBox="0 0 16 16" fill="none" xmlns="http://www.w3.org/2000/svg">
<path d="M1 6.15801H14.9997V14.2631C14.9997 14.4585 14.922 14.6459 14.7839 14.7841C14.6457 14.9223 14.4583 14.9999 14.2628 14.9999H1.73682C1.54141 14.9999 1.35399 14.9223 1.21581 14.7841C1.07763 14.6459 1 14.4585 1 14.2631V6.15801ZM1 2.84229C1 2.64688 1.07763 2.45946 1.21581 2.32128C1.35399 2.1831 1.54141 2.10547 1.73682 2.10547H14.2628C14.4583 2.10547 14.6457 2.1831 14.7839 2.32128C14.922 2.45946 14.9997 2.64688 14.9997 2.84229V6.15801H1V2.84229Z" stroke="#333333" stroke-width="1.6" stroke-linejoin="round"/>
<path d="M5.05273 10.3687L7.05273 12.3687L11.0527 8.36865" stroke="#333333" stroke-width="1.5" stroke-linecap="round" stroke-linejoin="round"/>
<path d="M5.05273 1V3.9473M10.9473 1V3.9473" stroke="#333333" stroke-width="1.6" stroke-linecap="round"/>
</svg>
