<svg width="20" height="20" viewBox="0 0 20 20" fill="none" xmlns="http://www.w3.org/2000/svg">
<path d="M10.0003 10.8334C10.4606 10.8334 10.8337 10.4603 10.8337 10.0001C10.8337 9.53984 10.4606 9.16675 10.0003 9.16675C9.54009 9.16675 9.16699 9.53984 9.16699 10.0001C9.16699 10.4603 9.54009 10.8334 10.0003 10.8334Z" fill="#333333"/>
<path d="M13.3333 10.8334C13.7936 10.8334 14.1667 10.4603 14.1667 10.0001C14.1667 9.53984 13.7936 9.16675 13.3333 9.16675C12.8731 9.16675 12.5 9.53984 12.5 10.0001C12.5 10.4603 12.8731 10.8334 13.3333 10.8334Z" fill="#333333"/>
<path d="M6.66634 10.8334C7.12658 10.8334 7.49967 10.4603 7.49967 10.0001C7.49967 9.53984 7.12658 9.16675 6.66634 9.16675C6.2061 9.16675 5.83301 9.53984 5.83301 10.0001C5.83301 10.4603 6.2061 10.8334 6.66634 10.8334Z" fill="#333333"/>
<path d="M15.2593 4.70671C14.0346 3.47216 12.4181 2.70423 10.6887 2.53531C8.95922 2.36639 7.2251 2.80707 5.7853 3.78136C4.34549 4.75566 3.29022 6.20253 2.80141 7.87251C2.3126 9.5425 2.42089 11.331 3.10762 12.9296C3.17919 13.0781 3.20267 13.2454 3.17479 13.408L2.51795 16.57C2.49264 16.6913 2.49781 16.8169 2.53299 16.9356C2.56816 17.0544 2.63225 17.1625 2.71948 17.2503C2.79099 17.3214 2.87613 17.3772 2.96978 17.4145C3.06342 17.4518 3.16363 17.4696 3.26436 17.4671H3.41365L6.6083 16.8242C6.77067 16.8046 6.93532 16.8278 7.08601 16.8915C8.68222 17.5792 10.468 17.6877 12.1355 17.1981C13.803 16.7086 15.2477 15.6518 16.2205 14.2098C17.1934 12.7678 17.6334 11.0311 17.4647 9.29908C17.2961 7.56704 16.5293 5.9482 15.2966 4.72166L15.2593 4.70671ZM15.8788 10.9561C15.7329 11.8486 15.3867 12.6964 14.8663 13.4356C14.3459 14.1748 13.665 14.7861 12.8746 15.2236C12.0842 15.6611 11.205 15.9134 10.3032 15.9615C9.40143 16.0095 8.50049 15.8521 7.66821 15.5011C7.37304 15.3753 7.05595 15.3093 6.7352 15.3067C6.59508 15.3077 6.45528 15.3202 6.3172 15.3441L4.21231 15.7702L4.63777 13.6621C4.7225 13.2056 4.66788 12.7341 4.48102 12.3091C4.1305 11.4756 3.97331 10.5733 4.0213 9.67015C4.06928 8.76701 4.32118 7.88652 4.75805 7.09496C5.19491 6.3034 5.80535 5.62139 6.54344 5.10025C7.28152 4.57911 8.12802 4.23241 9.01923 4.08626C9.95469 3.9325 10.9133 4.00401 11.8157 4.29487C12.7181 4.58572 13.5383 5.08756 14.2087 5.75889C14.879 6.43021 15.3801 7.25172 15.6705 8.15546C15.9609 9.05921 16.0323 10.0192 15.8788 10.9561Z" fill="#333333"/>
</svg>
