<svg width="42" height="42" viewBox="0 0 42 42" fill="none" xmlns="http://www.w3.org/2000/svg">
<g opacity="0.8">
<path fill-rule="evenodd" clip-rule="evenodd" d="M4.39828 10.5031C4.52953 12.8577 5.19978 14.3154 6.18153 15.2141C5.9357 15.3954 5.74451 15.6409 5.62892 15.9236C5.51332 16.2063 5.47777 16.5155 5.52616 16.8171C6.02753 19.9977 7.27966 26.7247 9.84603 34.3074C9.9467 34.6343 10.1495 34.9202 10.4246 35.1233C10.6997 35.3265 11.0327 35.4361 11.3747 35.4361C11.7166 35.4361 12.0496 35.3265 12.3247 35.1233C12.5998 34.9202 12.8026 34.6343 12.9033 34.3074C15.4705 26.7247 16.7227 19.9977 17.2232 16.8171C17.2714 16.5155 17.2358 16.2064 17.1203 15.9237C17.0047 15.6409 16.8135 15.3954 16.5678 15.2141C17.5495 14.3154 18.2198 12.8577 18.351 10.5031C18.3563 10.3888 18.3381 10.2746 18.2974 10.1676C18.2567 10.0607 18.1945 9.96322 18.1146 9.88132C18.0346 9.79943 17.9387 9.73485 17.8328 9.69158C17.7269 9.64831 17.6132 9.62729 17.4988 9.62981C16.0743 9.65081 14.9429 9.73743 14.06 10.0341C13.6952 9.07243 12.9602 8.16506 11.8524 7.33731C11.7144 7.23434 11.5468 7.17871 11.3747 7.17871C11.2025 7.17871 11.0349 7.23434 10.8969 7.33731C9.79878 8.15893 9.06553 9.05756 8.69891 10.0104C7.84141 9.75756 6.71878 9.65693 5.25316 9.63156C5.13869 9.62869 5.02486 9.64939 4.91874 9.69239C4.81262 9.73539 4.71648 9.79976 4.6363 9.8815C4.55612 9.96324 4.49361 10.0606 4.45266 10.1675C4.41172 10.2745 4.3932 10.3887 4.39828 10.5031ZM13.0205 12.2294L12.4238 10.6544C12.2575 10.2178 11.9347 9.72693 11.3747 9.21068C10.8208 9.72256 10.4979 10.2082 10.3317 10.6404L9.75066 12.1454L8.20366 11.6887C7.74691 11.5539 7.12391 11.4647 6.24803 11.4166C6.50878 13.1036 7.13353 13.8167 7.70403 14.1851C8.51866 14.7127 9.70691 14.8728 11.3484 14.8746H11.4009C13.0433 14.8728 14.2307 14.7127 15.0453 14.1851C15.6167 13.8167 16.2423 13.1027 16.5022 11.4113C15.6534 11.4559 15.0584 11.5443 14.6174 11.6922L13.0205 12.2294ZM7.26741 16.6246H15.4819C15.2317 18.2057 14.7959 20.6496 14.1082 23.6246H10.4997V25.3746H13.689C13.0853 27.8088 12.324 30.5222 11.3747 33.3633C11.0715 32.4546 10.7813 31.5415 10.504 30.6246H11.3747V28.8746H9.99128C9.25404 26.274 8.61253 23.6472 8.06803 20.9996H10.4997V19.2496H7.72328C7.55916 18.3768 7.40747 17.5017 7.26828 16.6246H7.26741Z" fill="#6842FF"/>
<path d="M33.461 24.526C33.686 24.5822 33.8796 24.7255 33.999 24.9244C34.1185 25.1233 34.1541 25.3614 34.098 25.5865C33.8545 26.5892 33.3398 27.5056 32.6103 28.2353C31.8808 28.965 30.9645 29.4798 29.9619 29.7235C29.8501 29.7524 29.7337 29.7588 29.6194 29.7425C29.5052 29.7262 29.3953 29.6874 29.296 29.6284C29.1968 29.5694 29.1102 29.4914 29.0413 29.3988C28.9724 29.3062 28.9224 29.2009 28.8944 29.0889C28.8663 28.9769 28.8607 28.8605 28.8779 28.7464C28.895 28.6322 28.9346 28.5226 28.9943 28.4238C29.0539 28.325 29.1326 28.239 29.2257 28.1707C29.3188 28.1024 29.4244 28.0533 29.5366 28.026C30.2318 27.8595 30.8673 27.5038 31.3728 26.9983C31.8782 26.4928 32.2339 25.8573 32.4005 25.1621C32.4569 24.9372 32.6003 24.7439 32.7991 24.6246C32.9979 24.5054 33.236 24.4699 33.461 24.526Z" fill="#6842FF"/>
<path fill-rule="evenodd" clip-rule="evenodd" d="M28.5687 18.3981C27.5992 16.1292 27.7672 13.7195 29.4936 11.9931L28.2564 10.7559C26.2176 12.7946 25.8641 15.4607 26.5475 17.9116C22.5444 16.0995 18.375 19.4315 18.375 24.4995C18.375 29.3321 22.6844 33.2495 28 33.2495C33.3156 33.2495 37.625 29.3321 37.625 24.4995C37.625 19.057 32.8169 15.6174 28.5687 18.3981ZM28 21.0529L26.9062 20.1779C25.2814 18.8776 23.6792 18.9502 22.4665 19.6992C21.1837 20.492 20.125 22.1877 20.125 24.4995C20.125 28.2121 23.4902 31.4995 28 31.4995C32.5097 31.4995 35.875 28.2121 35.875 24.4995C35.875 22.1877 34.8162 20.492 33.5335 19.6992C32.3207 18.9502 30.7186 18.8776 29.0929 20.1787L28 21.0529Z" fill="#6842FF"/>
<path d="M29.75 15.75C32.375 15.75 34.125 14 34.125 11.375C31.5 11.375 29.75 13.125 29.75 15.75Z" fill="#6842FF"/>
</g>
</svg>
