<svg width="35" height="35" viewBox="0 0 35 35" fill="none" xmlns="http://www.w3.org/2000/svg">
<path d="M35 0L0 35V23.9024V22.7642V19.065L19.065 0H22.7642H23.9024H35Z" fill="#1ED16F"/>
<path d="M6.59097 20.0786L4.97938 18.48L5.86673 17.5854C6.49351 16.9536 7.07339 16.9654 7.58456 17.4724C8.08152 17.9654 8.1051 18.5522 7.47832 19.1841L6.59097 20.0786ZM8.40853 16.6418C7.60628 15.846 6.36848 15.7591 5.20647 16.9305L3.51628 18.6344L8.45046 23.5289L9.2533 22.7196L7.25123 20.7336L8.13858 19.839C9.41327 18.554 9.11138 17.339 8.40853 16.6418ZM15.9417 15.9769L16.7868 15.125L10.092 11.9912L9.16236 12.9284L12.3501 19.5977L13.1881 18.7529L12.5321 17.3979L14.5815 15.3319L15.9417 15.9769ZM13.6959 14.9041L12.0972 16.5157L10.6069 13.4316L13.6959 14.9041ZM17.5493 14.3564L18.3521 13.547L13.4179 8.65249L12.6151 9.46183L17.5493 14.3564ZM16.0707 5.97829L14.472 7.58989L19.4062 12.4844L21.0048 10.8728C22.5753 9.28962 22.6735 7.33052 21.1542 5.82343C19.6278 4.30929 17.6411 4.39509 16.0707 5.97829ZM19.5488 11.0201L15.9351 7.43549L16.7309 6.63324C17.8859 5.46892 19.2014 5.53432 20.3302 6.65407C21.4519 7.76679 21.4995 9.05354 20.3446 10.2179L19.5488 11.0201Z" fill="white"/>
</svg>
