<svg width="72" height="72" viewBox="0 0 72 72" fill="none" xmlns="http://www.w3.org/2000/svg">
<path d="M0 32.9536C0 20.2629 0 13.9175 2.8565 9.25613C4.45486 6.64784 6.64784 4.45486 9.25613 2.8565C13.9175 0 20.2629 0 32.9537 0H39.0464C51.7371 0 58.0825 0 62.7439 2.8565C65.3522 4.45486 67.5451 6.64784 69.1435 9.25613C72 13.9175 72 20.2629 72 32.9537V39.0464C72 51.7371 72 58.0825 69.1435 62.7439C67.5451 65.3522 65.3522 67.5451 62.7439 69.1435C58.0825 72 51.7371 72 39.0463 72H32.9536C20.2629 72 13.9175 72 9.25613 69.1435C6.64784 67.5451 4.45486 65.3522 2.8565 62.7439C0 58.0825 0 51.7371 0 39.0463V32.9536Z" fill="#6842FF" fill-opacity="0.1"/>
<g clip-path="url(#clip0_14861_8390)">
<path d="M24.5 14C21.4664 14 19 16.4664 19 19.5V52.5C19 55.5336 21.4664 58 24.5 58H46.5C49.5336 58 52 55.5336 52 52.5V27.75H41C39.4789 27.75 38.25 26.5211 38.25 25V14H24.5ZM41 14V25H52L41 14ZM24.5 20.875C24.5 20.1188 25.1187 19.5 25.875 19.5H31.375C32.1312 19.5 32.75 20.1188 32.75 20.875C32.75 21.6312 32.1312 22.25 31.375 22.25H25.875C25.1187 22.25 24.5 21.6312 24.5 20.875ZM24.5 26.375C24.5 25.6187 25.1187 25 25.875 25H31.375C32.1312 25 32.75 25.6187 32.75 26.375C32.75 27.1313 32.1312 27.75 31.375 27.75H25.875C25.1187 27.75 24.5 27.1313 24.5 26.375ZM35.5 32.5625C36.2562 32.5625 36.875 33.1812 36.875 33.9375V35.4242C37.6055 35.5273 38.3102 35.6906 38.9461 35.8625C39.6766 36.0602 40.1148 36.8078 39.9172 37.5469C39.7195 38.2859 38.9719 38.7156 38.2328 38.518C37.2789 38.2602 36.3422 38.0711 35.4742 38.0625C34.7523 38.0539 33.9789 38.2172 33.4461 38.5352C32.9562 38.8273 32.75 39.1625 32.75 39.6352C32.75 39.9531 32.8617 40.1938 33.3773 40.5031C33.9703 40.8555 34.8039 41.1133 35.8867 41.4398L35.9297 41.4484C36.9008 41.7406 38.1039 42.1016 39.0492 42.7031C40.0891 43.3563 40.9742 44.3961 41 45.9859C41.0258 47.6445 40.175 48.8477 39.032 49.5609C38.3703 49.9734 37.6227 50.2141 36.875 50.343V51.8125C36.875 52.5687 36.2562 53.1875 35.5 53.1875C34.7437 53.1875 34.125 52.5687 34.125 51.8125V50.2828C33.1625 50.1023 32.2602 49.793 31.4695 49.518C31.2891 49.4578 31.1086 49.3977 30.9367 49.3375C30.2148 49.0969 29.8281 48.3148 30.0687 47.6016C30.3094 46.8883 31.0914 46.493 31.8047 46.7336C32.0195 46.8023 32.2172 46.8711 32.4148 46.9398C33.5836 47.3352 34.5289 47.6617 35.5344 47.6875C36.3164 47.7133 37.0727 47.5414 37.5711 47.232C38.0094 46.957 38.25 46.6047 38.2414 46.0289C38.2328 45.6336 38.0867 45.3586 37.5797 45.032C36.9953 44.6625 36.1617 44.3961 35.0875 44.0695L34.95 44.0266C34.0047 43.743 32.8617 43.3992 31.9594 42.8492C30.9281 42.2305 30.0172 41.225 30.0086 39.6437C30 37.9766 30.9367 36.825 32.0539 36.1633C32.6984 35.7852 33.4117 35.5445 34.125 35.4156V33.9375C34.125 33.1812 34.7437 32.5625 35.5 32.5625Z" fill="#6842FF"/>
</g>
<path d="M35 0L0 35V23.9024V22.7642V19.065L19.065 0H22.7642H23.9024H35Z" fill="#1ED16F"/>
<path d="M6.59097 20.0786L4.97938 18.48L5.86673 17.5854C6.49351 16.9536 7.07339 16.9654 7.58456 17.4724C8.08152 17.9654 8.1051 18.5522 7.47832 19.1841L6.59097 20.0786ZM8.40853 16.6418C7.60628 15.846 6.36848 15.7591 5.20647 16.9305L3.51628 18.6344L8.45046 23.5289L9.2533 22.7196L7.25123 20.7336L8.13858 19.839C9.41327 18.554 9.11138 17.339 8.40853 16.6418ZM15.9417 15.9769L16.7868 15.125L10.092 11.9912L9.16236 12.9284L12.3501 19.5977L13.1881 18.7529L12.5321 17.3979L14.5815 15.3319L15.9417 15.9769ZM13.6959 14.9041L12.0972 16.5157L10.6069 13.4316L13.6959 14.9041ZM17.5493 14.3564L18.3521 13.547L13.4179 8.65249L12.6151 9.46183L17.5493 14.3564ZM16.0707 5.97829L14.472 7.58989L19.4062 12.4844L21.0048 10.8728C22.5753 9.28962 22.6735 7.33052 21.1542 5.82343C19.6278 4.30929 17.6411 4.39509 16.0707 5.97829ZM19.5488 11.0201L15.9351 7.43549L16.7309 6.63324C17.8859 5.46892 19.2014 5.53432 20.3302 6.65407C21.4519 7.76679 21.4995 9.05354 20.3446 10.2179L19.5488 11.0201Z" fill="white"/>
<defs>
<clipPath id="clip0_14861_8390">
<rect width="33" height="44" fill="white" transform="translate(19 14)"/>
</clipPath>
</defs>
</svg>
