<svg width="16" height="13" viewBox="0 0 16 13" fill="none" xmlns="http://www.w3.org/2000/svg">
<path d="M10.2688 9.07493C10.7315 8.62376 11.0493 8.04486 11.1814 7.41221C11.3135 6.77955 11.254 6.12187 11.0104 5.52321C10.7669 4.92455 10.3504 4.41209 9.81417 4.05132C9.27793 3.69055 8.64631 3.49785 8 3.49785C7.3537 3.49785 6.72207 3.69055 6.18584 4.05132C5.6496 4.41209 5.2331 4.92455 4.98956 5.52321C4.74603 6.12187 4.68651 6.77955 4.81863 7.41221C4.95074 8.04486 5.26849 8.62376 5.73125 9.07493C4.85932 9.54497 4.15742 10.2775 3.725 11.1687C3.63715 11.3477 3.62401 11.5543 3.68848 11.743C3.75294 11.9317 3.88973 12.0871 4.06875 12.1749C4.24777 12.2628 4.45436 12.2759 4.64307 12.2115C4.83178 12.147 4.98715 12.0102 5.075 11.8312C5.34113 11.2817 5.75665 10.8183 6.27396 10.494C6.79128 10.1698 7.38947 9.99782 8 9.99782C8.61054 9.99782 9.20872 10.1698 9.72604 10.494C10.2434 10.8183 10.6589 11.2817 10.925 11.8312C10.987 11.9572 11.0832 12.0632 11.2025 12.1373C11.3218 12.2113 11.4596 12.2503 11.6 12.2499C11.7125 12.249 11.8235 12.2234 11.925 12.1749C12.0144 12.1322 12.0944 12.0722 12.1604 11.9983C12.2264 11.9245 12.2772 11.8383 12.3097 11.7447C12.3423 11.6512 12.3559 11.5521 12.35 11.4532C12.344 11.3544 12.3185 11.2576 12.275 11.1687C11.8426 10.2775 11.1407 9.54497 10.2688 9.07493ZM6.25 6.74993C6.25 6.40381 6.35264 6.06546 6.54493 5.77768C6.73722 5.48989 7.01054 5.26559 7.33031 5.13314C7.65008 5.00068 8.00194 4.96603 8.34141 5.03355C8.68088 5.10108 8.9927 5.26775 9.23744 5.51249C9.48218 5.75723 9.64885 6.06905 9.71638 6.40852C9.7839 6.74799 9.74924 7.09985 9.61679 7.41962C9.48434 7.73939 9.26004 8.01271 8.97225 8.205C8.68447 8.39729 8.34612 8.49993 8 8.49993C7.53638 8.49828 7.09222 8.31338 6.76439 7.98554C6.43655 7.65771 6.25165 7.21355 6.25 6.74993ZM15.7 7.34993C15.5409 7.46927 15.3408 7.52052 15.1439 7.49239C14.947 7.46426 14.7694 7.35906 14.65 7.19993C14.4151 6.88355 14.1194 6.61723 13.7803 6.41654C13.4411 6.21586 13.0654 6.08485 12.675 6.03118C12.5269 6.009 12.3888 5.94298 12.2785 5.84161C12.1682 5.74024 12.0908 5.60818 12.0563 5.46243C12.0431 5.43432 12.0326 5.40502 12.025 5.37493C11.9997 5.27971 11.9935 5.1804 12.0069 5.08278C12.0203 4.98516 12.0529 4.89117 12.1029 4.80627C12.1529 4.72137 12.2193 4.64726 12.2982 4.58823C12.3771 4.5292 12.4669 4.48644 12.5625 4.46243C12.7655 4.40923 12.9519 4.30577 13.1044 4.16158C13.2569 4.0174 13.3707 3.83712 13.4352 3.6374C13.4997 3.43767 13.5129 3.22491 13.4735 3.01875C13.4341 2.81259 13.3435 2.61966 13.2099 2.45776C13.0764 2.29586 12.9042 2.1702 12.7092 2.09236C12.5143 2.01453 12.3029 1.98703 12.0946 2.0124C11.8862 2.03778 11.6876 2.11521 11.5171 2.23755C11.3466 2.35989 11.2096 2.5232 11.1188 2.71243C11.0815 2.8088 11.0248 2.89644 10.9521 2.96985C10.8794 3.04327 10.7923 3.10088 10.6964 3.13906C10.6004 3.17725 10.4975 3.19519 10.3943 3.19177C10.291 3.18834 10.1896 3.16362 10.0963 3.11915C10.0031 3.07468 9.92001 3.01143 9.85235 2.93336C9.78469 2.85528 9.73389 2.76407 9.70314 2.66545C9.67238 2.56682 9.66234 2.4629 9.67363 2.36021C9.68492 2.25752 9.7173 2.15827 9.76875 2.06868C9.93612 1.71524 10.1769 1.40156 10.4751 1.14858C10.7733 0.89559 11.1221 0.709115 11.4981 0.601593C11.8741 0.494072 12.2687 0.467977 12.6555 0.525051C13.0424 0.582125 13.4127 0.721055 13.7416 0.93257C14.0705 1.14408 14.3505 1.42332 14.563 1.75164C14.7754 2.07996 14.9154 2.44982 14.9736 2.83653C15.0318 3.22324 15.0068 3.61791 14.9003 3.9942C14.7939 4.37049 14.6084 4.71975 14.3563 5.01868C14.9437 5.32875 15.4541 5.76657 15.85 6.29993C15.9091 6.37872 15.9521 6.46838 15.9765 6.56379C16.001 6.6592 16.0064 6.75849 15.9925 6.85599C15.9785 6.95349 15.9455 7.0473 15.8954 7.13205C15.8452 7.2168 15.7788 7.29083 15.7 7.34993ZM3.325 6.03118C2.93462 6.08485 2.55886 6.21586 2.21973 6.41654C1.88061 6.61723 1.58493 6.88355 1.35 7.19993C1.27948 7.29237 1.18876 7.36746 1.08477 7.41945C0.980773 7.47145 0.866267 7.49898 0.750003 7.49993C0.58787 7.49904 0.43024 7.4465 0.300003 7.34993C0.140873 7.23058 0.0356714 7.05291 0.00754094 6.85599C-0.0205895 6.65908 0.0306557 6.45906 0.150003 6.29993C0.545904 5.76657 1.05634 5.32875 1.64375 5.01868C1.39162 4.71975 1.20613 4.37049 1.09968 3.9942C0.993225 3.61791 0.968252 3.22324 1.02642 2.83653C1.0846 2.44982 1.22458 2.07996 1.43703 1.75164C1.64947 1.42332 1.9295 1.14408 2.25843 0.93257C2.58735 0.721055 2.9576 0.582125 3.34447 0.525051C3.73135 0.467977 4.12595 0.494072 4.50193 0.601593C4.87792 0.709115 5.22666 0.89559 5.52486 1.14858C5.82307 1.40156 6.06389 1.71524 6.23125 2.06868C6.2827 2.15827 6.31509 2.25752 6.32638 2.36021C6.33767 2.4629 6.32762 2.56682 6.29687 2.66545C6.26611 2.76407 6.21531 2.85528 6.14766 2.93336C6.08 3.01143 5.99694 3.07468 5.90369 3.11915C5.81043 3.16362 5.709 3.18834 5.60575 3.19177C5.50249 3.19519 5.39965 3.17725 5.30365 3.13906C5.20766 3.10088 5.12059 3.04327 5.0479 2.96985C4.97521 2.89644 4.91848 2.8088 4.88125 2.71243C4.79045 2.5232 4.65345 2.35989 4.48291 2.23755C4.31236 2.11521 4.11376 2.03778 3.90541 2.0124C3.69706 1.98703 3.48568 2.01453 3.29076 2.09236C3.09584 2.1702 2.92365 2.29586 2.79008 2.45776C2.65651 2.61966 2.56586 2.81259 2.52649 3.01875C2.48712 3.22491 2.50029 3.43767 2.56479 3.6374C2.6293 3.83712 2.74306 4.0174 2.89558 4.16158C3.0481 4.30577 3.23447 4.40923 3.4375 4.46243C3.53306 4.48644 3.6229 4.5292 3.7018 4.58823C3.78069 4.64726 3.84707 4.72137 3.89708 4.80627C3.94709 4.89117 3.97973 4.98516 3.99311 5.08278C4.00648 5.1804 4.00033 5.27971 3.975 5.37493C3.9674 5.40502 3.95693 5.43432 3.94375 5.46243C3.9092 5.60818 3.8318 5.74024 3.72153 5.84161C3.61125 5.94298 3.47314 6.009 3.325 6.03118Z" fill="white"/>
</svg>
