<svg width="64" height="64" viewBox="0 0 64 64" fill="none" xmlns="http://www.w3.org/2000/svg">
<g filter="url(#filter0_d_9037_6218)">
<path d="M25 24.51V39.49C25 40.61 25.49 41.4267 26.47 41.94C27.45 42.4533 28.4067 42.4067 29.34 41.8L40.96 34.38C41.8467 33.8667 42.29 33.0733 42.29 32C42.29 30.9267 41.8467 30.1333 40.96 29.62L29.34 22.2C28.4067 21.5933 27.45 21.5467 26.47 22.06C25.49 22.5733 25 23.39 25 24.51ZM32 60C28.1267 60 24.4867 59.2645 21.08 57.7936C17.6733 56.3245 14.71 54.33 12.19 51.81C9.67 49.29 7.67547 46.3267 6.2064 42.92C4.73547 39.5133 4 35.8733 4 32C4 28.1267 4.73547 24.4867 6.2064 21.08C7.67547 17.6733 9.67 14.71 12.19 12.19C14.71 9.67 17.6733 7.67453 21.08 6.2036C24.4867 4.73453 28.1267 4 32 4C35.8733 4 39.5133 4.73453 42.92 6.2036C46.3267 7.67453 49.29 9.67 51.81 12.19C54.33 14.71 56.3245 17.6733 57.7936 21.08C59.2645 24.4867 60 28.1267 60 32C60 35.8733 59.2645 39.5133 57.7936 42.92C56.3245 46.3267 54.33 49.29 51.81 51.81C49.29 54.33 46.3267 56.3245 42.92 57.7936C39.5133 59.2645 35.8733 60 32 60ZM32 54.4C38.2067 54.4 43.4921 52.2188 47.8564 47.8564C52.2188 43.4921 54.4 38.2067 54.4 32C54.4 25.7933 52.2188 20.5079 47.8564 16.1436C43.4921 11.7812 38.2067 9.6 32 9.6C25.7933 9.6 20.5088 11.7812 16.1464 16.1436C11.7821 20.5079 9.6 25.7933 9.6 32C9.6 38.2067 11.7821 43.4921 16.1464 47.8564C20.5088 52.2188 25.7933 54.4 32 54.4Z" fill="white"/>
</g>
<defs>
<filter id="filter0_d_9037_6218" x="0" y="0" width="64" height="64" filterUnits="userSpaceOnUse" color-interpolation-filters="sRGB">
<feFlood flood-opacity="0" result="BackgroundImageFix"/>
<feColorMatrix in="SourceAlpha" type="matrix" values="0 0 0 0 0 0 0 0 0 0 0 0 0 0 0 0 0 0 127 0" result="hardAlpha"/>
<feOffset/>
<feGaussianBlur stdDeviation="2"/>
<feComposite in2="hardAlpha" operator="out"/>
<feColorMatrix type="matrix" values="0 0 0 0 0 0 0 0 0 0 0 0 0 0 0 0 0 0 0.4 0"/>
<feBlend mode="normal" in2="BackgroundImageFix" result="effect1_dropShadow_9037_6218"/>
<feBlend mode="normal" in="SourceGraphic" in2="effect1_dropShadow_9037_6218" result="shape"/>
</filter>
</defs>
</svg>
