<svg width="20" height="20" viewBox="0 0 20 20" fill="none" xmlns="http://www.w3.org/2000/svg">
<path d="M15.5283 14.2324L19.4544 18.1576L18.1573 19.4547L14.2322 15.5286C12.7717 16.6994 10.9551 17.3362 9.08325 17.3335C4.52925 17.3335 0.833252 13.6375 0.833252 9.0835C0.833252 4.5295 4.52925 0.833496 9.08325 0.833496C13.6373 0.833496 17.3333 4.5295 17.3333 9.0835C17.3359 10.9553 16.6991 12.7719 15.5283 14.2324ZM13.6895 13.5522C14.8529 12.3559 15.5025 10.7522 15.4999 9.0835C15.4999 5.53783 12.628 2.66683 9.08325 2.66683C5.53759 2.66683 2.66659 5.53783 2.66659 9.0835C2.66659 12.6282 5.53759 15.5002 9.08325 15.5002C10.752 15.5028 12.3556 14.8531 13.552 13.6897L13.6895 13.5522Z" fill="#A58EFF"/>
</svg>
