<svg width="16" height="16" viewBox="0 0 16 16" fill="none" xmlns="http://www.w3.org/2000/svg">
<path d="M14.2744 8.49493C14.152 8.35808 14.0845 8.18216 14.0845 8C14.0845 7.81784 14.152 7.64192 14.2744 7.50507L15.2516 6.42521C15.3593 6.30723 15.4261 6.15878 15.4426 6.00115C15.459 5.84353 15.4242 5.68483 15.3432 5.54783L13.8164 2.95319C13.7362 2.81635 13.614 2.70788 13.4673 2.64324C13.3206 2.57861 13.1569 2.56111 12.9995 2.59324L11.5643 2.8782C11.3817 2.91526 11.1916 2.88539 11.0299 2.79421C10.8681 2.70303 10.746 2.55685 10.6864 2.38326L10.2208 1.01095C10.1695 0.862005 10.072 0.732637 9.94183 0.641132C9.81169 0.549627 9.65557 0.500614 9.49552 0.50102H6.44191C6.27544 0.492484 6.1107 0.53771 5.97285 0.629788C5.835 0.721866 5.73162 0.855736 5.67851 1.01095L5.251 2.38326C5.19146 2.55685 5.06929 2.70303 4.90756 2.79421C4.74582 2.88539 4.55571 2.91526 4.37309 2.8782L2.89972 2.59324C2.75051 2.57252 2.5984 2.59565 2.46256 2.65971C2.32671 2.72376 2.21319 2.82588 2.13632 2.95319L0.609511 5.54783C0.526422 5.6833 0.489063 5.84111 0.502774 5.99869C0.516485 6.15627 0.580564 6.30556 0.685851 6.42521L1.65537 7.50507C1.77776 7.64192 1.84526 7.81784 1.84526 8C1.84526 8.18216 1.77776 8.35808 1.65537 8.49493L0.685851 9.57479C0.580564 9.69444 0.516485 9.84373 0.502774 10.0013C0.489063 10.1589 0.526422 10.3167 0.609511 10.4522L2.13632 13.0468C2.21655 13.1837 2.33871 13.2921 2.48538 13.3568C2.63206 13.4214 2.79576 13.4389 2.95316 13.4068L4.38836 13.1218C4.57098 13.0847 4.76109 13.1146 4.92282 13.2058C5.08456 13.297 5.20673 13.4431 5.26627 13.6167L5.73195 14.989C5.78506 15.1443 5.88844 15.2781 6.02629 15.3702C6.16413 15.4623 6.32888 15.5075 6.49535 15.499H9.54896C9.709 15.4994 9.86513 15.4504 9.99527 15.3589C10.1254 15.2674 10.223 15.138 10.2742 14.989L10.7399 13.6167C10.7994 13.4431 10.9216 13.297 11.0833 13.2058C11.245 13.1146 11.4352 13.0847 11.6178 13.1218L13.053 13.4068C13.2104 13.4389 13.3741 13.4214 13.5208 13.3568C13.6674 13.2921 13.7896 13.1837 13.8698 13.0468L15.3966 10.4522C15.4777 10.3152 15.5125 10.1565 15.496 9.99885C15.4796 9.84122 15.4127 9.69277 15.305 9.57479L14.2744 8.49493ZM13.137 9.4998L13.7477 10.1747L12.7705 11.8395L11.8697 11.6595C11.3199 11.5491 10.7479 11.6408 10.2624 11.9173C9.77693 12.1938 9.41166 12.6357 9.23597 13.1593L8.94587 13.9992H6.99156L6.71674 13.1443C6.54104 12.6208 6.17577 12.1788 5.69027 11.9023C5.20476 11.6258 4.63281 11.5341 4.08299 11.6445L3.18218 11.8245L2.18976 10.1672L2.80048 9.4923C3.17604 9.07984 3.38367 8.54587 3.38367 7.9925C3.38367 7.43913 3.17604 6.90517 2.80048 6.4927L2.18976 5.8178L3.16691 4.16802L4.06773 4.348C4.61755 4.4584 5.18949 4.36665 5.675 4.09018C6.16051 3.81371 6.52577 3.37175 6.70147 2.8482L6.99156 2.00082H8.94587L9.23597 2.8557C9.41166 3.37925 9.77693 3.82121 10.2624 4.09768C10.7479 4.37415 11.3199 4.4659 11.8697 4.3555L12.7705 4.17552L13.7477 5.84029L13.137 6.5152C12.7656 6.92672 12.5606 7.45759 12.5606 8.0075C12.5606 8.55741 12.7656 9.08828 13.137 9.4998ZM7.96872 5.00041C7.36477 5.00041 6.77438 5.17633 6.27222 5.50593C5.77006 5.83553 5.37867 6.304 5.14755 6.85211C4.91643 7.40021 4.85595 8.00333 4.97378 8.58519C5.0916 9.16706 5.38243 9.70153 5.80949 10.121C6.23654 10.5405 6.78064 10.8262 7.37299 10.942C7.96533 11.0577 8.57931 10.9983 9.13728 10.7713C9.69526 10.5442 10.1722 10.1598 10.5077 9.66648C10.8432 9.1732 11.0223 8.59326 11.0223 8C11.0223 7.20446 10.7006 6.4415 10.1279 5.87897C9.55528 5.31644 8.77858 5.00041 7.96872 5.00041ZM7.96872 9.4998C7.66674 9.4998 7.37155 9.41183 7.12047 9.24704C6.86939 9.08224 6.67369 8.848 6.55813 8.57395C6.44257 8.29989 6.41234 7.99834 6.47125 7.7074C6.53016 7.41647 6.67557 7.14923 6.8891 6.93948C7.10263 6.72973 7.37468 6.58689 7.67085 6.52902C7.96702 6.47115 8.27401 6.50085 8.553 6.61437C8.83199 6.72788 9.07044 6.92012 9.23821 7.16676C9.40598 7.4134 9.49552 7.70337 9.49552 8C9.49552 8.39777 9.33466 8.77925 9.04833 9.06052C8.762 9.34178 8.37365 9.4998 7.96872 9.4998Z" fill="#333333"/>
</svg>
