<svg width="13" height="12" viewBox="0 0 13 12" fill="none" xmlns="http://www.w3.org/2000/svg">
<path d="M6.49968 10.0531L3.34887 11.8876C3.20968 11.9732 3.06416 12.0099 2.91231 11.9977C2.76047 11.9855 2.6276 11.9366 2.51372 11.8509C2.39983 11.7653 2.31126 11.6582 2.24799 11.5295C2.18472 11.4009 2.17206 11.2573 2.21003 11.0988L3.04518 7.63157L0.255007 5.30174C0.128469 5.19167 0.0495087 5.06619 0.0181272 4.9253C-0.0132543 4.78441 -0.0038905 4.64694 0.0462187 4.5129C0.0968341 4.37837 0.172757 4.2683 0.273988 4.18269C0.375218 4.09708 0.514411 4.04204 0.691564 4.01758L4.37383 3.70571L5.79739 0.440283C5.86066 0.293522 5.95885 0.183451 6.09197 0.110071C6.22509 0.0366903 6.36099 0 6.49968 0C6.63887 0 6.77477 0.0366903 6.90738 0.110071C7.04 0.183451 7.13819 0.293522 7.20196 0.440283L8.62552 3.70571L12.3078 4.01758C12.4849 4.04204 12.6241 4.09708 12.7254 4.18269C12.8266 4.2683 12.9025 4.37837 12.9531 4.5129C13.0037 4.64743 13.0134 4.78514 12.982 4.92603C12.9506 5.06692 12.8714 5.19216 12.7443 5.30174L9.95417 7.63157L10.7893 11.0988C10.8273 11.2578 10.8146 11.4016 10.7514 11.5303C10.6881 11.6589 10.5995 11.7658 10.4856 11.8509C10.3718 11.9366 10.2389 11.9855 10.087 11.9977C9.93519 12.0099 9.78967 11.9732 9.65048 11.8876L6.49968 10.0531Z" fill="#3E3E3E"/>
</svg>
