<svg width="170" height="150" viewBox="0 0 170 150" fill="none" xmlns="http://www.w3.org/2000/svg">
<mask id="mask0_8316_5654" style="mask-type:alpha" maskUnits="userSpaceOnUse" x="0" y="0" width="170" height="150">
<rect width="170" height="150" rx="15" fill="#44CB7F" fill-opacity="0.2"/>
</mask>
<g mask="url(#mask0_8316_5654)">
<ellipse rx="75.0593" ry="50.5072" transform="matrix(-0.920962 0.389652 0.389652 0.920962 36.4998 134)" fill="#C7F0D9"/>
<ellipse rx="75.0593" ry="50.5072" transform="matrix(-0.920962 0.389652 0.389652 0.920962 36.4998 134)" fill="#3C9864"/>
<path d="M162 135L163.98 140.02L169 142L163.98 143.98L162 149L160.02 143.98L155 142L160.02 140.02L162 135Z" fill="#279B5C"/>
<path d="M147.723 115.949L146.952 124.394L152.597 130.722L144.152 129.951L137.824 135.597L138.595 127.152L132.949 120.824L141.394 121.595L147.723 115.949Z" fill="#279B5C"/>
<path d="M120.373 87.8394L126.04 98.3441L137.586 101.373L127.081 107.04L124.052 118.586L118.385 108.081L106.839 105.052L117.344 99.3846L120.373 87.8394Z" fill="#279B5C"/>
</g>
</svg>
