<svg width="170" height="150" viewBox="0 0 170 150" fill="none" xmlns="http://www.w3.org/2000/svg">
<mask id="mask0_8319_5690" style="mask-type:alpha" maskUnits="userSpaceOnUse" x="0" y="0" width="170" height="150">
<rect width="170" height="150" rx="15" fill="#44CB7F" fill-opacity="0.2"/>
</mask>
<g mask="url(#mask0_8319_5690)">
<ellipse cx="137.222" cy="139.495" rx="85" ry="55.0337" transform="rotate(34.4935 137.222 139.495)" fill="#C7F0D9"/>
<ellipse cx="137.222" cy="139.495" rx="85" ry="55.0337" transform="rotate(34.4935 137.222 139.495)" fill="#7A26FF"/>
<path d="M12.9717 141.101L8.0864 143.393L6.42699 148.528L4.13448 143.643L-1.00047 141.984L3.88479 139.691L5.5442 134.556L7.83671 139.441L12.9717 141.101Z" fill="#7A26FF"/>
<path d="M31.0837 125.65L22.6069 125.413L16.6474 131.446L16.8843 122.97L10.8514 117.01L19.3282 117.247L25.2877 111.214L25.0507 119.691L31.0837 125.65Z" fill="#7A26FF"/>
<path d="M57.4135 96.583L47.287 102.901L44.9919 114.615L38.6735 104.488L26.9603 102.193L37.0868 95.8747L39.3818 84.1615L45.7002 94.288L57.4135 96.583Z" fill="#7A26FF"/>
</g>
</svg>
