<svg width="18" height="18" viewBox="0 0 18 18" fill="none" xmlns="http://www.w3.org/2000/svg">
<path fill-rule="evenodd" clip-rule="evenodd" d="M11.5 5.5C11.5 6.16304 11.2366 6.79893 10.7678 7.26777C10.2989 7.73661 9.66304 8 9 8C8.33696 8 7.70107 7.73661 7.23223 7.26777C6.76339 6.79893 6.5 6.16304 6.5 5.5C6.5 4.83696 6.76339 4.20107 7.23223 3.73223C7.70107 3.26339 8.33696 3 9 3C9.66304 3 10.2989 3.26339 10.7678 3.73223C11.2366 4.20107 11.5 4.83696 11.5 5.5ZM10.3889 5.5C10.3889 5.86836 10.2426 6.22163 9.98209 6.48209C9.72163 6.74256 9.36836 6.88889 9 6.88889C8.63164 6.88889 8.27837 6.74256 8.01791 6.48209C7.75744 6.22163 7.61111 5.86836 7.61111 5.5C7.61111 5.13164 7.75744 4.77837 8.01791 4.51791C8.27837 4.25744 8.63164 4.11111 9 4.11111C9.36836 4.11111 9.72163 4.25744 9.98209 4.51791C10.2426 4.77837 10.3889 5.13164 10.3889 5.5Z" fill="#333333"/>
<path fill-rule="evenodd" clip-rule="evenodd" d="M1.50274 0.00174474C1.63487 -0.00931212 1.766 0.0325068 1.86726 0.118002C1.96853 0.203497 2.03164 0.325665 2.04271 0.457631L2.18621 2.13987C7.19948 1.25306 10.6868 1.24507 15.8146 2.14336L15.9576 0.457631C15.9631 0.392286 15.9815 0.328671 16.0117 0.27042C16.0418 0.212169 16.0832 0.160422 16.1334 0.118135C16.1836 0.0758472 16.2416 0.0438475 16.3042 0.0239629C16.3667 0.00407818 16.4326 -0.00330196 16.4981 0.00224403L17.4945 0.0871298C17.6266 0.0983135 17.7488 0.161396 17.8343 0.262515C17.9198 0.363634 17.9616 0.494517 17.9505 0.626404L17.786 2.5583C17.8579 2.60839 17.9154 2.6765 17.9527 2.75578C17.9899 2.83506 18.0056 2.92273 17.9982 3.01C17.9908 3.09726 17.9606 3.18105 17.9105 3.25295C17.8605 3.32485 17.7923 3.38234 17.713 3.41964L17.538 5.47787C17.5325 5.54326 17.5141 5.60692 17.4839 5.66521C17.4537 5.72349 17.4123 5.77526 17.362 5.81756C17.3118 5.85985 17.2537 5.89184 17.1911 5.91169C17.1284 5.93155 17.0625 5.93887 16.997 5.93326L16.0011 5.84837C15.869 5.83719 15.7468 5.77411 15.6613 5.67299C15.5758 5.57187 15.534 5.44099 15.5451 5.3091L15.7291 3.14202C15.4604 3.09461 15.1914 3.049 14.9221 3.0052C14.9704 3.15442 14.9948 3.31028 14.9946 3.46708L14.9966 3.64184V3.64584C15.0031 4.22056 15.0206 5.73702 14.8421 7.18308C14.7421 7.99199 14.5676 8.91025 14.2272 9.66673C13.9727 10.231 13.4502 11.0658 12.5002 11.3545V11.8977C12.8727 11.7659 13.2462 11.6406 13.5552 11.5632C13.7507 11.5132 14.1077 11.4314 14.4782 11.4643C14.8175 11.4913 15.1409 11.6193 15.4066 11.8318C15.5929 11.9834 15.7429 12.1746 15.8456 12.3916C15.9483 12.6085 16.0011 12.8457 16.0001 13.0856C16.0001 13.5465 15.8516 14.6415 15.7331 15.421C15.6696 15.8394 15.6031 16.2389 15.5511 16.51L15.5466 16.532C15.5101 16.7217 15.4551 17.0049 15.3016 17.2625V17.263L15.3006 17.2645C15.2656 17.3229 15.1081 17.5891 14.7826 17.7848C14.5831 17.9048 14.3583 17.9769 14.1261 17.9953C13.8938 18.0137 13.6605 17.9779 13.4445 17.8908C13.2284 17.8037 13.0357 17.6676 12.8813 17.4933C12.727 17.319 12.6154 17.1113 12.5552 16.8865C12.4652 16.5555 12.4387 16.2099 12.4252 15.9008C12.4206 15.801 12.4168 15.7011 12.4137 15.6012C12.4077 15.429 12.4027 15.2717 12.3897 15.1164C11.9671 15.2649 11.5401 15.4007 11.1093 15.5238C10.4593 15.7061 9.70787 15.8714 9.0004 15.8714C8.29293 15.8714 7.54196 15.7066 6.89149 15.5238C6.46767 15.4027 6.0475 15.2692 5.63155 15.1234L5.62155 15.2537C5.59297 15.6311 5.56197 16.0082 5.52855 16.3852C5.51356 16.5684 5.48906 16.8546 5.37106 17.1152C5.27119 17.3362 5.11911 17.5297 4.92786 17.679C4.73661 17.8284 4.51192 17.9292 4.27308 17.9727C4.03425 18.0162 3.7884 18.0011 3.55667 17.9288C3.32494 17.8565 3.11424 17.7292 2.94267 17.5576C2.58019 17.1956 2.53169 16.7447 2.50069 16.4601L2.49069 16.3732C2.48069 16.2893 2.46419 16.1795 2.44169 16.0436C2.4032 15.8055 2.3527 15.5243 2.2982 15.2188L2.2742 15.0854C2.21062 14.7373 2.15128 14.3884 2.09621 14.0388C2.05071 13.7407 2.00071 13.3757 2.00071 13.0856C2.00071 12.6667 2.16521 12.1803 2.59419 11.8323C2.88501 11.5988 3.24461 11.4672 3.61764 11.4578C3.88163 11.4478 4.13262 11.4908 4.31411 11.5312C4.36361 11.5422 4.40761 11.5532 4.4456 11.5627C4.75459 11.6406 5.12757 11.7659 5.50056 11.8972V11.3465C5.43799 11.3259 5.37643 11.3024 5.31606 11.2761C4.71259 11.0119 4.32061 10.5071 4.07812 10.0812C3.97856 9.90638 3.89136 9.72484 3.81713 9.53791C3.53714 8.84584 3.36865 8.02694 3.25916 7.28494C3.02067 5.66911 3.00067 3.95892 3.00067 3.46708C3.00067 3.3043 3.02667 3.14751 3.07467 3.00121C2.81118 3.04415 2.54369 3.09009 2.2712 3.13902L2.45569 5.3091C2.46677 5.44099 2.42496 5.57187 2.33946 5.67299C2.25396 5.77411 2.13176 5.83719 1.99971 5.84837L1.00326 5.93326C0.871201 5.94432 0.740148 5.90257 0.638897 5.81718C0.537647 5.73179 0.474482 5.60975 0.463284 5.47787L0.288292 3.41964C0.208688 3.38261 0.14028 3.32526 0.0899773 3.25337C0.0396744 3.18148 0.00925853 3.09761 0.00180216 3.01023C-0.00565421 2.92284 0.0101128 2.83504 0.0475109 2.75569C0.084909 2.67634 0.142613 2.60825 0.214795 2.5583L0.0503024 0.625904C0.0392267 0.494018 0.0810323 0.363135 0.166533 0.262016C0.252033 0.160897 0.374234 0.0978142 0.506282 0.0866305L1.50274 0.00174474V0.00174474ZM5.75104 2.63919C5.91414 2.88454 6.00095 3.17258 6.00053 3.46708C6.00053 3.91897 6.02103 5.4544 6.22702 6.84803C6.33052 7.55008 6.46651 8.10933 6.61701 8.46036H11.4803L11.4853 8.44887L11.4913 8.43689C11.6448 8.09585 11.7763 7.5351 11.8648 6.81657C12.0158 5.59322 12.0033 4.29347 11.9968 3.69078V3.68778L11.9953 3.46708C11.9953 3.16299 12.0853 2.88037 12.2413 2.64419C9.99135 2.4145 7.96794 2.4135 5.75104 2.63919V2.63919ZM11.5003 11.3475V10.947C11.5003 10.8232 11.5463 10.7038 11.6295 10.612C11.7126 10.5202 11.8269 10.4626 11.9503 10.4502C12.6312 10.3813 13.0607 9.82102 13.3152 9.25678C13.5937 8.63862 13.7537 7.83919 13.8502 7.06074C14.0197 5.68559 14.0032 4.22656 13.9967 3.65283V3.65033L13.9947 3.46708C13.9947 3.33465 13.942 3.20764 13.8482 3.114C13.7545 3.02036 13.6273 2.96775 13.4947 2.96775C13.3621 2.96775 13.2349 3.02036 13.1412 3.114C13.0474 3.20764 12.9947 3.33465 12.9947 3.46708L12.9967 3.68029V3.68578C13.0027 4.28847 13.0167 5.64515 12.8572 6.9389C12.7652 7.6869 12.6192 8.36698 12.4032 8.84634C12.3002 9.07503 12.1998 9.22682 12.0968 9.3232C12.0041 9.41036 11.8816 9.45894 11.7543 9.45901H6.31952C6.24135 9.45903 6.16427 9.44075 6.09445 9.40563C6.02464 9.37051 5.96405 9.31953 5.91754 9.25678C5.83373 9.13806 5.7633 9.01046 5.70755 8.8763C5.50056 8.40293 5.34656 7.73284 5.23757 6.99383C5.02058 5.52581 5.00058 3.93245 5.00058 3.46708C5.00058 3.33465 4.9479 3.20764 4.85414 3.114C4.76037 3.02036 4.6332 2.96775 4.5006 2.96775C4.368 2.96775 4.24083 3.02036 4.14706 3.114C4.0533 3.20764 4.00062 3.33465 4.00062 3.46708C4.00062 3.86404 4.01462 5.06842 4.14912 6.3477C4.17662 6.61035 4.20911 6.87699 4.24811 7.13963C4.36111 7.9051 4.5306 8.68056 4.79209 9.27676C5.02008 9.79706 5.41306 10.3793 6.05503 10.4502C6.17746 10.4636 6.29063 10.5217 6.37283 10.6132C6.45504 10.7048 6.50051 10.8235 6.50051 10.9465V11.3475C6.62201 11.3839 6.7765 11.4269 6.95849 11.4698C7.46147 11.5876 8.17194 11.706 9.0004 11.706C9.68766 11.7054 10.3726 11.6261 11.0418 11.4698C11.2243 11.4269 11.3788 11.3839 11.5003 11.3475ZM6.50051 12.3846C7.31698 12.596 8.15694 12.7033 9.0004 12.7041C9.84385 12.7033 10.6838 12.596 11.5003 12.3846V12.6063C11.5003 12.6863 11.5195 12.7651 11.5564 12.8362C11.5933 12.9072 11.6467 12.9683 11.7121 13.0144C11.7776 13.0605 11.8532 13.0903 11.9326 13.1011C12.012 13.1119 12.0928 13.1035 12.1683 13.0766L12.4432 12.9783C12.9542 12.795 13.4387 12.6223 13.7997 12.5309C13.9827 12.4849 14.1992 12.442 14.3897 12.459C14.4866 12.4675 14.6396 12.4959 14.7756 12.6068C14.9346 12.7356 15.0001 12.9169 15.0001 13.0861C15.0001 13.4541 14.8671 14.4638 14.7446 15.2712C14.6926 15.6218 14.6341 15.9713 14.5691 16.3198C14.5266 16.5385 14.4981 16.6588 14.4422 16.7527L14.4397 16.7567C14.3891 16.8419 14.3145 16.9103 14.2251 16.9532C14.1357 16.9961 14.0356 17.0116 13.9374 16.9979C13.8392 16.9841 13.7473 16.9416 13.6733 16.8758C13.5992 16.8099 13.5463 16.7237 13.5212 16.6279V16.6269C13.4612 16.4062 13.4372 16.151 13.4237 15.8554C13.4201 15.7724 13.417 15.6893 13.4142 15.6062C13.4093 15.3834 13.3971 15.1607 13.3777 14.9386L13.3202 14.3814C13.3123 14.3062 13.2874 14.2338 13.2473 14.1696C13.2073 14.1055 13.1532 14.0512 13.0891 14.011C13.025 13.9707 12.9527 13.9455 12.8774 13.9373C12.8022 13.9291 12.726 13.938 12.6547 13.9634C12.0968 14.1632 11.4618 14.3879 10.8388 14.5626C10.2158 14.7374 9.56987 14.8727 9.0004 14.8727C8.43092 14.8727 7.78495 14.7374 7.16198 14.5626C6.57701 14.3979 5.98103 14.1896 5.44856 13.9999L5.35006 13.9649C5.27757 13.939 5.20007 13.9302 5.12361 13.9392C5.04714 13.9481 4.97377 13.9745 4.90922 14.0164C4.84467 14.0583 4.79067 14.1146 4.75145 14.1807C4.71223 14.2469 4.68883 14.3212 4.68309 14.3979C4.66459 14.6425 4.64459 14.9132 4.6241 15.1768C4.5926 15.5828 4.5616 15.9757 4.5376 16.2374L4.5356 16.2599C4.5146 16.492 4.5041 16.6074 4.4601 16.7038L4.4571 16.7107C4.42289 16.7833 4.37168 16.8466 4.30781 16.8953C4.24393 16.944 4.16927 16.9765 4.09013 16.9903C4.01098 17.0041 3.92968 16.9986 3.8531 16.9744C3.77652 16.9501 3.7069 16.9078 3.65014 16.8511C3.54514 16.7462 3.53264 16.6473 3.48665 16.2788L3.48315 16.2499C3.46742 16.1275 3.44942 16.0055 3.42915 15.8839C3.38915 15.6367 3.33715 15.3481 3.28316 15.046L3.25816 14.9097C3.19618 14.5698 3.13834 14.2293 3.08467 13.888C3.03817 13.585 3.00067 13.2899 3.00067 13.0856C3.00067 12.9169 3.06567 12.7361 3.22516 12.6063C3.32065 12.5289 3.42515 12.4914 3.51165 12.4735C3.54864 12.4655 3.58214 12.4615 3.61064 12.4585C3.80163 12.442 4.01812 12.4849 4.20061 12.5309C4.29061 12.5538 4.38761 12.5808 4.4906 12.6128C4.78059 12.7016 5.12007 12.8215 5.47456 12.9483L5.83254 13.0766C5.908 13.1035 5.98881 13.1119 6.06819 13.1011C6.14756 13.0903 6.22317 13.0605 6.28865 13.0144C6.35412 12.9683 6.40754 12.9072 6.44441 12.8362C6.48128 12.7651 6.50052 12.6863 6.50051 12.6063V12.3846Z" fill="#333333"/>
</svg>
