<svg width="45" height="45" viewBox="0 0 45 45" fill="none" xmlns="http://www.w3.org/2000/svg">
<path d="M45 0L0 45V30.7317V29.2683V24.5122L24.5122 0H29.2683H30.7317H45Z" fill="#EF5350"/>
<path d="M5.67124 30.7545L2.54034 27.6488L3.34319 26.8394L6.48828 29.9592C7.25503 30.7198 8.0467 30.6459 8.72278 29.9644C9.4059 29.2757 9.47342 28.4835 8.70667 27.7229L5.56157 24.6031L6.36441 23.7937L9.49531 26.8995C10.7519 28.146 10.4469 29.6463 9.42569 30.6757C8.39749 31.7123 6.92786 32.001 5.67124 30.7545ZM10.621 19.4884L11.4239 18.6791L16.3652 23.5806L15.5623 24.39L9.46209 23.1701L13.1467 26.8251L12.3439 27.6345L7.40262 22.7329L8.20547 21.9236L14.2986 23.1364L10.621 19.4884ZM15.56 19.0675L16.4473 18.173C17.0741 17.5411 17.0505 16.9543 16.5535 16.4613C16.0424 15.9543 15.4625 15.9425 14.8357 16.5743L13.9484 17.4689L15.56 19.0675ZM17.3775 15.6307C18.0804 16.3279 18.3823 17.5429 17.1076 18.8279L16.2202 19.7225L18.2223 21.7085L17.4194 22.5178L12.4853 17.6233L14.1755 15.9194C15.3375 14.748 16.5753 14.8349 17.3775 15.6307ZM24.9107 14.9658L23.5505 14.3208L21.5011 16.3867L22.1571 17.7418L21.3191 18.5866L18.1313 11.9173L19.061 10.9801L25.7558 14.1139L24.9107 14.9658ZM22.6648 13.893L19.5759 12.4205L21.0662 15.5046L22.6648 13.893ZM26.5183 13.3453L21.5841 8.45073L22.3869 7.64139L27.3211 12.5359L26.5183 13.3453ZM25.0396 4.96719C26.6101 3.38399 28.5968 3.29819 30.1232 4.81233C31.6425 6.31942 31.5443 8.27851 29.9738 9.86171L28.3752 11.4733L23.441 6.57878L25.0396 4.96719ZM28.5178 10.009L29.3136 9.20676C30.4685 8.04244 30.4209 6.75568 29.2992 5.64297C28.1704 4.52322 26.8549 4.45781 25.6999 5.62214L24.9041 6.42439L28.5178 10.009Z" fill="white"/>
</svg>
