<svg width="72" height="72" viewBox="0 0 72 72" fill="none" xmlns="http://www.w3.org/2000/svg">
<path d="M0 32.9536C0 20.2629 0 13.9175 2.8565 9.25613C4.45486 6.64784 6.64784 4.45486 9.25613 2.8565C13.9175 0 20.2629 0 32.9537 0H39.0464C51.7371 0 58.0825 0 62.7439 2.8565C65.3522 4.45486 67.5451 6.64784 69.1435 9.25613C72 13.9175 72 20.2629 72 32.9537V39.0464C72 51.7371 72 58.0825 69.1435 62.7439C67.5451 65.3522 65.3522 67.5451 62.7439 69.1435C58.0825 72 51.7371 72 39.0463 72H32.9536C20.2629 72 13.9175 72 9.25613 69.1435C6.64784 67.5451 4.45486 65.3522 2.8565 62.7439C0 58.0825 0 51.7371 0 39.0463V32.9536Z" fill="#6842FF" fill-opacity="0.1"/>
<g clip-path="url(#clip0_14861_8365)">
<path d="M24.5 14C21.4664 14 19 16.4664 19 19.5V52.5C19 55.5336 21.4664 58 24.5 58H46.5C49.5336 58 52 55.5336 52 52.5V27.75H41C39.4789 27.75 38.25 26.5211 38.25 25V14H24.5ZM41 14V25H52L41 14ZM24.5 20.875C24.5 20.1188 25.1187 19.5 25.875 19.5H31.375C32.1312 19.5 32.75 20.1188 32.75 20.875C32.75 21.6312 32.1312 22.25 31.375 22.25H25.875C25.1187 22.25 24.5 21.6312 24.5 20.875ZM24.5 26.375C24.5 25.6187 25.1187 25 25.875 25H31.375C32.1312 25 32.75 25.6187 32.75 26.375C32.75 27.1313 32.1312 27.75 31.375 27.75H25.875C25.1187 27.75 24.5 27.1313 24.5 26.375ZM35.5 32.5625C36.2562 32.5625 36.875 33.1812 36.875 33.9375V35.4242C37.6055 35.5273 38.3102 35.6906 38.9461 35.8625C39.6766 36.0602 40.1148 36.8078 39.9172 37.5469C39.7195 38.2859 38.9719 38.7156 38.2328 38.518C37.2789 38.2602 36.3422 38.0711 35.4742 38.0625C34.7523 38.0539 33.9789 38.2172 33.4461 38.5352C32.9562 38.8273 32.75 39.1625 32.75 39.6352C32.75 39.9531 32.8617 40.1938 33.3773 40.5031C33.9703 40.8555 34.8039 41.1133 35.8867 41.4398L35.9297 41.4484C36.9008 41.7406 38.1039 42.1016 39.0492 42.7031C40.0891 43.3563 40.9742 44.3961 41 45.9859C41.0258 47.6445 40.175 48.8477 39.032 49.5609C38.3703 49.9734 37.6227 50.2141 36.875 50.343V51.8125C36.875 52.5687 36.2562 53.1875 35.5 53.1875C34.7437 53.1875 34.125 52.5687 34.125 51.8125V50.2828C33.1625 50.1023 32.2602 49.793 31.4695 49.518C31.2891 49.4578 31.1086 49.3977 30.9367 49.3375C30.2148 49.0969 29.8281 48.3148 30.0687 47.6016C30.3094 46.8883 31.0914 46.493 31.8047 46.7336C32.0195 46.8023 32.2172 46.8711 32.4148 46.9398C33.5836 47.3352 34.5289 47.6617 35.5344 47.6875C36.3164 47.7133 37.0727 47.5414 37.5711 47.232C38.0094 46.957 38.25 46.6047 38.2414 46.0289C38.2328 45.6336 38.0867 45.3586 37.5797 45.032C36.9953 44.6625 36.1617 44.3961 35.0875 44.0695L34.95 44.0266C34.0047 43.743 32.8617 43.3992 31.9594 42.8492C30.9281 42.2305 30.0172 41.225 30.0086 39.6437C30 37.9766 30.9367 36.825 32.0539 36.1633C32.6984 35.7852 33.4117 35.5445 34.125 35.4156V33.9375C34.125 33.1812 34.7437 32.5625 35.5 32.5625Z" fill="#6842FF"/>
</g>
<path d="M45 0L0 45V30.7317V29.2683V24.5122L24.5122 0H29.2683H30.7317H45Z" fill="#EF5350"/>
<path d="M5.67124 30.7545L2.54034 27.6488L3.34319 26.8394L6.48828 29.9592C7.25503 30.7198 8.0467 30.6459 8.72278 29.9644C9.4059 29.2757 9.47342 28.4835 8.70667 27.7229L5.56157 24.6031L6.36441 23.7937L9.49531 26.8995C10.7519 28.146 10.4469 29.6463 9.42569 30.6757C8.39749 31.7123 6.92786 32.001 5.67124 30.7545ZM10.621 19.4884L11.4239 18.6791L16.3652 23.5806L15.5623 24.39L9.46209 23.1701L13.1467 26.8251L12.3439 27.6345L7.40262 22.7329L8.20547 21.9236L14.2986 23.1364L10.621 19.4884ZM15.56 19.0675L16.4473 18.173C17.0741 17.5411 17.0505 16.9543 16.5535 16.4613C16.0424 15.9543 15.4625 15.9425 14.8357 16.5743L13.9484 17.4689L15.56 19.0675ZM17.3775 15.6307C18.0804 16.3279 18.3823 17.5429 17.1076 18.8279L16.2202 19.7225L18.2223 21.7085L17.4194 22.5178L12.4853 17.6233L14.1755 15.9194C15.3375 14.748 16.5753 14.8349 17.3775 15.6307ZM24.9107 14.9658L23.5505 14.3208L21.5011 16.3867L22.1571 17.7418L21.3191 18.5866L18.1313 11.9173L19.061 10.9801L25.7558 14.1139L24.9107 14.9658ZM22.6648 13.893L19.5759 12.4205L21.0662 15.5046L22.6648 13.893ZM26.5183 13.3453L21.5841 8.45073L22.3869 7.64139L27.3211 12.5359L26.5183 13.3453ZM25.0396 4.96719C26.6101 3.38399 28.5968 3.29819 30.1232 4.81233C31.6425 6.31942 31.5443 8.27851 29.9738 9.86171L28.3752 11.4733L23.441 6.57878L25.0396 4.96719ZM28.5178 10.009L29.3136 9.20676C30.4685 8.04244 30.4209 6.75568 29.2992 5.64297C28.1704 4.52322 26.8549 4.45781 25.6999 5.62214L24.9041 6.42439L28.5178 10.009Z" fill="white"/>
<defs>
<clipPath id="clip0_14861_8365">
<rect width="33" height="44" fill="white" transform="translate(19 14)"/>
</clipPath>
</defs>
</svg>
