<svg width="52" height="52" viewBox="0 0 52 52" fill="none" xmlns="http://www.w3.org/2000/svg">
<path d="M0 23.8C0 14.6344 0 10.0516 2.06304 6.68502C3.21742 4.80124 4.80124 3.21742 6.68502 2.06304C10.0516 0 14.6344 0 23.8 0H28.2003C37.3659 0 41.9487 0 45.3153 2.06304C47.1991 3.21742 48.7829 4.80124 49.9373 6.68502C52.0003 10.0516 52.0003 14.6344 52.0003 23.8V28.2003C52.0003 37.3659 52.0003 41.9487 49.9373 45.3153C48.7829 47.1991 47.1991 48.7829 45.3153 49.9373C41.9487 52.0003 37.3659 52.0003 28.2003 52.0003H23.8C14.6344 52.0003 10.0516 52.0003 6.68502 49.9373C4.80124 48.7829 3.21742 47.1991 2.06304 45.3153C0 41.9487 0 37.3659 0 28.2003V23.8Z" fill="#6842FF" fill-opacity="0.1"/>
<path d="M39.848 23.664C39.848 23.6638 39.848 23.6638 39.848 23.6636C39.848 21.975 38.678 20.5016 37.0496 20.1064L37.0498 20.104L37.0938 19.6L37.5058 15.003L39.6112 12.1122C39.8388 11.7996 39.77 11.362 39.4574 11.1342C39.1448 10.9064 38.707 10.9756 38.4794 11.288L36.26 14.3352C35.7182 15.0788 34.8442 15.5228 33.922 15.5228H27.962C27.5754 15.5228 27.262 15.8362 27.262 16.2228C27.262 16.6094 27.5754 16.9228 27.962 16.9228H33.9222C34.6474 16.9228 35.3516 16.736 35.974 16.3976V16.398L35.676 19.744L35.516 21.532L35.15 25.618C35.136 25.744 35.122 25.872 35.108 26.004H36.184C36.298 26.004 36.41 25.992 36.518 25.972C36.526 25.902 36.534 25.832 36.542 25.762L36.876 22.042L36.9218 21.5248C37.8208 21.835 38.4484 22.6916 38.4484 23.6638L38.4478 24.2938C38.4208 25.4318 37.5494 26.3636 36.4376 26.4878C36.4226 26.4896 36.4074 26.491 36.3924 26.4926C36.3238 26.4988 36.2548 26.503 36.1846 26.503H27.2212C26.538 26.503 25.9822 27.0588 25.9822 27.742V30.9142C25.9822 31.5974 26.538 32.1532 27.2212 32.1532H35.2516C35.2516 32.1534 35.2516 32.1536 35.2516 32.1538C35.2716 32.3218 35.2936 32.4878 35.3176 32.6538C35.3296 32.7438 35.3416 32.8338 35.3556 32.9238L26.0128 32.924H25.9866H16.6458C16.9758 30.656 17.0778 28.2538 16.9158 26.2858C16.9018 26.116 16.8858 25.9502 16.8678 25.7864H32.8066C33.4898 25.7864 34.0456 25.2306 34.0456 24.5474V21.3754C34.0456 20.6922 33.4898 20.1364 32.8066 20.1364H16.3598V20.136H15.8158C15.6612 20.136 15.5108 20.1206 15.3652 20.0914C14.3488 19.8856 13.5772 18.9968 13.552 17.9266L13.5514 17.297C13.5514 16.5392 13.92 15.8504 14.5316 15.4316V15.432L14.5856 16.032L14.8836 19.366C15.1536 19.538 15.4736 19.636 15.8156 19.636H16.3156L16.0256 16.398V16.3976C16.648 16.736 17.3522 16.9228 18.0774 16.9228H24.0376C24.4242 16.9228 24.7376 16.6094 24.7376 16.2228C24.7376 15.8362 24.4242 15.5228 24.0376 15.5228H18.0776C17.1552 15.5228 16.2812 15.0788 15.7396 14.3352L13.5202 11.288C13.2928 10.9754 12.8546 10.9066 12.5422 11.1342C12.2296 11.3618 12.1608 11.7996 12.3884 12.1122L13.8936 14.179C12.8116 14.8434 12.1514 16.0076 12.1514 17.297C12.1514 17.2972 12.1514 17.2972 12.1514 17.2974C12.1514 17.2976 12.1514 17.2976 12.1514 17.2978L12.152 17.8446C12.1516 17.8538 12.1514 17.8632 12.1514 17.8726C12.1514 17.8958 12.1516 17.919 12.152 17.942L12.156 21.8548C12.1546 22.9046 12.5622 23.8918 13.304 24.6346C13.8956 25.227 14.6442 25.603 15.4554 25.7326L15.4556 25.736L15.4596 25.782C15.4776 25.934 15.4936 26.09 15.5076 26.248C15.7356 28.76 15.4976 32.048 14.8816 34.788C14.5776 36.142 14.4216 37.478 14.4216 38.756V40.3C14.4216 40.686 14.7356 41 15.1216 41C15.5096 41 15.8216 40.686 15.8216 40.3V38.756C15.8216 38.2782 15.8456 37.7884 15.8936 37.2946H17.6986C19.1596 37.2946 20.5534 37.7542 21.7198 38.6162L23.8974 40.285C24.519 40.7614 25.263 40.9992 26.007 40.9992C26.7548 40.9992 27.5028 40.7588 28.1258 40.278L30.27 38.6236C31.4462 37.7542 32.84 37.2946 34.3008 37.2946H36.1058C36.1538 37.7884 36.1778 38.2782 36.1778 38.756V40.3C36.1778 40.686 36.4898 41 36.8778 41C37.2638 41 37.5778 40.686 37.5778 40.3V38.756C37.5778 37.478 37.4218 36.142 37.1178 34.788C36.9598 34.082 36.8258 33.338 36.7198 32.58C36.6958 32.416 36.6738 32.25 36.6538 32.084C36.6538 32.0838 36.6538 32.0834 36.6538 32.0832C37.4228 31.938 38.1304 31.5672 38.6954 31.0014C39.4372 30.2586 39.845 29.2714 39.8434 28.2232L39.8476 24.3092C39.848 24.2858 39.8482 24.2624 39.8482 24.239C39.8482 24.2296 39.848 24.22 39.8476 24.2106L39.8482 23.6642C39.848 23.6644 39.848 23.6642 39.848 23.664ZM15.0322 23.7472V24.1564C14.7616 24.0324 14.5114 23.8624 14.2946 23.6454C13.8174 23.1674 13.555 22.5322 13.556 21.855L13.555 20.754C14.178 21.2438 14.9632 21.5362 15.8152 21.5362H32.6456V24.3864H31.6248V23.747C31.6248 23.4708 31.401 23.247 31.1248 23.247C30.8486 23.247 30.6248 23.4708 30.6248 23.747V24.3864H29.6758V22.6486C29.6758 22.3724 29.452 22.1486 29.1758 22.1486C28.8996 22.1486 28.6758 22.3724 28.6758 22.6486V24.3864H27.7266V23.747C27.7266 23.4708 27.5028 23.247 27.2266 23.247C26.9504 23.247 26.7266 23.4708 26.7266 23.747V24.3864H25.7778V22.6486C25.7778 22.3724 25.554 22.1486 25.2778 22.1486C25.0016 22.1486 24.7778 22.3724 24.7778 22.6486V24.3864H23.8288V23.747C23.8288 23.4708 23.605 23.247 23.3288 23.247C23.0526 23.247 22.8288 23.4708 22.8288 23.747V24.3864H21.8796V22.6486C21.8796 22.3724 21.6558 22.1486 21.3796 22.1486C21.1034 22.1486 20.8796 22.3724 20.8796 22.6486V24.3864H19.9306V23.747C19.9306 23.4708 19.7068 23.247 19.4306 23.247C19.1544 23.247 18.9306 23.4708 18.9306 23.747V24.3864H17.9814V22.6486C17.9814 22.3724 17.7576 22.1486 17.4814 22.1486C17.2052 22.1486 16.9814 22.3724 16.9814 22.6486V24.3864H16.0826C16.0656 24.3864 16.0492 24.3842 16.0324 24.384V23.747C16.0324 23.4708 15.8086 23.247 15.5324 23.247C15.2562 23.247 15.0322 23.471 15.0322 23.7472ZM29.4264 37.5064L27.2708 39.1696C26.5292 39.7416 25.4926 39.7438 24.7492 39.1738L22.5618 37.4978C21.1432 36.449 19.4616 35.8946 17.6988 35.8946H16.0878C16.0878 35.8944 16.0878 35.8942 16.088 35.894C16.134 35.628 16.188 35.362 16.248 35.094C16.304 34.842 16.358 34.5842 16.408 34.3242H25.987H26.0132H35.5922C35.6422 34.5842 35.6962 34.842 35.7522 35.094C35.8122 35.362 35.8662 35.628 35.9122 35.894C35.9122 35.8942 35.9122 35.8944 35.9124 35.8946H34.3012C32.538 35.8948 30.8564 36.449 29.4264 37.5064ZM38.4434 28.2236C38.4444 28.8992 38.182 29.5344 37.7048 30.0122C37.4882 30.229 37.238 30.3992 36.9674 30.523V30.1136C36.9674 29.8374 36.7436 29.6136 36.4674 29.6136C36.1912 29.6136 35.9674 29.8374 35.9674 30.1136V30.7508C35.9506 30.7512 35.934 30.7532 35.917 30.7532H35.0182V29.0152C35.0182 28.739 34.7944 28.5152 34.5182 28.5152C34.242 28.5152 34.0182 28.739 34.0182 29.0152V30.7532H33.0692V30.1136C33.0692 29.8374 32.8454 29.6136 32.5692 29.6136C32.293 29.6136 32.0692 29.8374 32.0692 30.1136V30.7532H31.1202V29.0152C31.1202 28.739 30.8964 28.5152 30.6202 28.5152C30.344 28.5152 30.1202 28.739 30.1202 29.0152V30.7532H29.171V30.1136C29.171 29.8374 28.9472 29.6136 28.671 29.6136C28.3948 29.6136 28.171 29.8374 28.171 30.1136V30.7532H27.3824V27.9032H36.1844C37.0366 27.9032 37.8218 27.6108 38.4448 27.121L38.4434 28.2236Z" fill="#6842FF"/>
</svg>
