<svg width="52" height="52" viewBox="0 0 52 52" fill="none" xmlns="http://www.w3.org/2000/svg">
<path d="M0 23.8C0 14.6344 0 10.0516 2.06304 6.68502C3.21742 4.80124 4.80124 3.21742 6.68502 2.06304C10.0516 0 14.6344 0 23.8 0H28.2003C37.3659 0 41.9487 0 45.3153 2.06304C47.1991 3.21742 48.7829 4.80124 49.9373 6.68502C52.0003 10.0516 52.0003 14.6344 52.0003 23.8V28.2003C52.0003 37.3659 52.0003 41.9487 49.9373 45.3153C48.7829 47.1991 47.1991 48.7829 45.3153 49.9373C41.9487 52.0003 37.3659 52.0003 28.2003 52.0003H23.8C14.6344 52.0003 10.0516 52.0003 6.68502 49.9373C4.80124 48.7829 3.21742 47.1991 2.06304 45.3153C0 41.9487 0 37.3659 0 28.2003V23.8Z" fill="#6842FF" fill-opacity="0.1"/>
<path d="M23.1671 11.1666C16.3337 12.3333 10.6671 17.8333 9.50039 24.6666C9.00039 27.8333 9.33372 30.9999 10.5004 33.8333C10.5004 33.9999 10.6671 34.1666 10.8337 34.3333L11.0004 34.4999L11.3337 34.8333C11.5004 34.8333 11.6671 34.9999 11.8337 34.9999C12.0004 34.9999 12.3337 34.9999 12.5004 34.8333L18.5004 32.3333C18.6671 32.1666 18.8337 32.1666 19.0004 31.9999C19.0004 31.9999 19.0004 31.8333 19.1671 31.8333C19.1671 31.6666 19.3337 31.6666 19.3337 31.4999V30.3333C19.5004 29.4999 19.3337 28.8333 19.3337 28.1666C19.3337 24.1666 22.3337 20.9999 26.0004 20.9999C27.8337 20.9999 29.5004 21.6666 30.6671 22.9999C32.0004 24.3333 32.6671 26.1666 32.6671 27.9999C32.6671 28.6666 32.5004 29.3333 32.3337 29.9999V31.1666C32.3337 31.3333 32.5004 31.3333 32.5004 31.4999C32.5004 31.4999 32.5004 31.6666 32.6671 31.6666C32.8337 31.8333 33.0004 31.9999 33.1671 31.9999L39.1671 34.4999C39.3337 34.6666 39.6671 34.6666 39.8337 34.6666C40.0004 34.6666 40.1671 34.6666 40.3337 34.4999C40.5004 34.4999 40.6671 34.3333 40.6671 34.1666L40.8337 33.9999C41.0004 33.8333 41.0004 33.6666 41.1671 33.4999C42.0004 31.4999 42.3337 29.4999 42.3337 27.3333C42.3337 22.8333 40.6671 18.6666 37.5004 15.4999C34.0004 11.9999 28.5004 10.3333 23.1671 11.1666ZM12.8337 25.3333C13.1671 23.1666 14.1671 21.1666 15.6671 19.3333L18.5004 21.1666C17.0004 23.1666 16.0004 25.4999 16.0004 28.1666C16.0004 28.6666 16.0004 29.1666 16.1671 29.6666L14.0004 30.6666L13.0004 30.9999C12.6671 29.1666 12.5004 27.1666 12.8337 25.3333ZM21.0004 18.9999L18.0004 16.9999C19.6671 15.8333 21.6671 14.8333 23.6671 14.4999C27.3337 13.8333 31.0004 14.8333 34.0004 16.9999L31.0004 18.9999C29.5004 18.1666 27.8337 17.6666 26.0004 17.6666C24.1671 17.6666 22.5004 18.1666 21.0004 18.9999ZM39.0004 30.9999L36.0004 29.6666C36.0004 29.1666 36.1671 28.6666 36.1671 28.1666C36.1671 25.6666 35.3337 23.1666 33.6671 21.3333L36.5004 19.3333C38.3337 21.6666 39.3337 24.4999 39.3337 27.6666C39.3337 28.8333 39.1671 29.8333 39.0004 30.9999Z" fill="#6842FF"/>
<path d="M25.9997 39.3337C27.833 39.3337 29.333 37.8337 29.333 36.0003C29.333 35.3337 29.1663 34.8337 28.833 34.3337L28.1663 31.0003L27.833 29.3337C27.6663 28.8337 27.6663 28.167 27.4997 27.667C27.4997 26.8337 26.833 26.167 25.9997 26.167C24.9997 26.167 24.333 26.8337 24.1663 27.667C24.1663 28.167 23.9997 28.8337 23.833 29.3337L23.4997 31.0003L22.833 34.3337C22.4997 34.8337 22.333 35.5003 22.333 36.0003C22.6663 37.8337 24.1663 39.3337 25.9997 39.3337Z" fill="#6842FF"/>
</svg>
