<svg width="20" height="10" viewBox="0 0 20 10" fill="none" xmlns="http://www.w3.org/2000/svg">
<path d="M6.16634 0.833496H3.83301C3.7004 0.833496 3.57322 0.886175 3.47945 0.979943C3.38569 1.07371 3.33301 1.20089 3.33301 1.3335V8.66683C3.33301 8.73249 3.34594 8.79751 3.37107 8.85817C3.3962 8.91883 3.43303 8.97395 3.47945 9.02038C3.52588 9.06681 3.581 9.10364 3.64167 9.12877C3.70233 9.1539 3.76735 9.16683 3.83301 9.16683H6.16634C6.232 9.16683 6.29702 9.1539 6.35768 9.12877C6.41835 9.10364 6.47347 9.06681 6.51989 9.02038C6.56632 8.97395 6.60315 8.91883 6.62828 8.85817C6.65341 8.79751 6.66634 8.73249 6.66634 8.66683V1.3335C6.66634 1.20089 6.61366 1.07371 6.51989 0.979943C6.42613 0.886175 6.29895 0.833496 6.16634 0.833496V0.833496ZM16.1663 0.833496H13.833C13.7004 0.833496 13.5732 0.886175 13.4795 0.979943C13.3857 1.07371 13.333 1.20089 13.333 1.3335V8.66683C13.333 8.73249 13.3459 8.79751 13.3711 8.85817C13.3962 8.91883 13.433 8.97395 13.4795 9.02038C13.5259 9.06681 13.581 9.10364 13.6417 9.12877C13.7023 9.1539 13.7673 9.16683 13.833 9.16683H16.1663C16.232 9.16683 16.297 9.1539 16.3577 9.12877C16.4183 9.10364 16.4735 9.06681 16.5199 9.02038C16.5663 8.97395 16.6032 8.91883 16.6283 8.85817C16.6534 8.79751 16.6663 8.73249 16.6663 8.66683V1.3335C16.6663 1.20089 16.6137 1.07371 16.5199 0.979943C16.4261 0.886175 16.2989 0.833496 16.1663 0.833496V0.833496Z" stroke="#333333" stroke-width="1.5" stroke-linecap="round" stroke-linejoin="round"/>
<path d="M6.66634 5H13.333M0.833008 7V3C0.833008 2.86739 0.885686 2.74021 0.979454 2.64645C1.07322 2.55268 1.2004 2.5 1.33301 2.5H2.83301C2.96562 2.5 3.09279 2.55268 3.18656 2.64645C3.28033 2.74021 3.33301 2.86739 3.33301 3V7C3.33301 7.13261 3.28033 7.25979 3.18656 7.35355C3.09279 7.44732 2.96562 7.5 2.83301 7.5H1.33301C1.2004 7.5 1.07322 7.44732 0.979454 7.35355C0.885686 7.25979 0.833008 7.13261 0.833008 7V7ZM19.1663 7V3C19.1663 2.86739 19.1137 2.74021 19.0199 2.64645C18.9261 2.55268 18.7989 2.5 18.6663 2.5H17.1663C17.0337 2.5 16.9066 2.55268 16.8128 2.64645C16.719 2.74021 16.6663 2.86739 16.6663 3V7C16.6663 7.13261 16.719 7.25979 16.8128 7.35355C16.9066 7.44732 17.0337 7.5 17.1663 7.5H18.6663C18.7989 7.5 18.9261 7.44732 19.0199 7.35355C19.1137 7.25979 19.1663 7.13261 19.1663 7V7Z" stroke="#333333" stroke-width="1.5" stroke-linecap="round" stroke-linejoin="round"/>
</svg>
